<svg version="1.1" id="Layer_1" xmlns="http://www.w3.org/2000/svg" xmlns:xlink="http://www.w3.org/1999/xlink" x="0px" y="0px"
	 width="100%" viewBox="0 0 1573 563" enable-background="new 0 0 1573 563" xml:space="preserve">
<path fill="#000000" opacity="1.000000" stroke="none" 
	d="
M1115.000000,1.000008 
	C1267.930298,1.000000 1420.860474,1.000000 1574.000000,1.000000 
	C1574.000000,152.027969 1574.000000,303.056030 1573.649658,454.841125 
	C1572.867188,454.771790 1572.175903,453.985474 1572.041138,453.113129 
	C1569.711426,438.041382 1563.016602,425.098175 1552.047363,414.697601 
	C1540.411865,403.665344 1526.378296,396.105988 1511.286133,391.140930 
	C1490.273438,384.228119 1468.916626,378.363647 1447.723022,371.997253 
	C1437.981323,369.070953 1427.856689,365.889648 1421.114502,358.212036 
	C1411.187622,346.907898 1413.871094,327.112915 1430.894775,320.152069 
	C1442.737183,315.309814 1455.452393,314.736084 1467.937012,317.139038 
	C1485.420288,320.504181 1501.615112,327.767365 1516.890381,336.624420 
	C1534.167236,346.642181 1556.334351,337.041992 1561.550049,320.062958 
	C1565.793945,306.247253 1560.549438,290.185028 1548.915405,284.008392 
	C1541.129517,279.874817 1533.388672,275.627228 1525.417847,271.876923 
	C1507.365845,263.383392 1488.116211,259.250580 1468.342285,258.166168 
	C1457.478027,257.570343 1446.434082,257.935577 1435.631226,259.216614 
	C1425.950684,260.364563 1416.121216,262.371002 1407.012451,265.759460 
	C1391.013550,271.711029 1377.030518,281.023071 1366.494141,294.942719 
	C1357.318481,307.064423 1351.631104,320.713501 1350.234985,335.661865 
	C1349.322266,345.434479 1350.276123,355.449677 1351.081299,365.300018 
	C1352.677734,384.829102 1362.638672,400.025909 1377.655151,411.766998 
	C1388.602417,420.326508 1401.496460,425.757263 1414.685425,429.887817 
	C1433.201172,435.686707 1452.113281,440.233765 1470.574097,446.189423 
	C1479.939087,449.210693 1488.881104,453.770264 1497.659790,458.318756 
	C1506.645752,462.974731 1508.904053,471.714661 1507.798706,480.814850 
	C1506.595459,490.721680 1500.200684,497.277802 1490.964600,500.981964 
	C1475.926514,507.012909 1460.175537,506.243286 1444.925049,503.655548 
	C1427.127441,500.635651 1410.439819,493.340302 1395.711182,482.749603 
	C1387.816284,477.072815 1380.146240,472.798737 1370.082275,472.870758 
	C1358.225708,472.955688 1345.518433,480.464661 1341.496826,493.098236 
	C1337.634155,505.232330 1339.496216,517.913635 1350.579468,526.694519 
	C1359.322266,533.621033 1369.101440,539.601257 1379.183594,544.397522 
	C1398.264038,553.474304 1418.184326,560.377014 1439.531860,562.092346 
	C1440.068848,562.135559 1440.512695,563.338135 1441.000000,564.000000 
	C961.102417,564.000000 481.204803,564.000000 1.000000,564.000000 
	C1.000000,393.638763 1.000000,223.277328 1.328277,52.546486 
	C6.863894,56.711208 12.097652,61.215450 17.271811,65.787148 
	C23.569777,71.351807 29.708967,77.101006 36.110416,82.542664 
	C48.228008,92.843407 60.464069,103.005272 72.688133,113.180107 
	C82.641579,121.464966 92.472511,129.911087 102.677452,137.876129 
	C115.653625,148.004120 128.788834,157.946396 142.154449,167.552765 
	C158.003860,178.944366 173.789978,190.499939 190.297562,200.880814 
	C211.054733,213.934036 232.105698,226.645569 253.783554,238.075073 
	C276.880005,250.252518 300.610535,261.322510 324.536102,271.798370 
	C340.212372,278.662292 356.649994,283.839020 372.894379,289.334656 
	C382.704926,292.653625 392.692719,295.603638 402.789185,297.886841 
	C418.313171,301.397430 433.942413,304.526367 449.634216,307.184326 
	C462.029114,309.283844 474.570740,310.563110 487.076202,311.944092 
	C493.135498,312.613251 499.257355,312.816650 505.357788,312.991943 
	C519.617615,313.401611 533.904846,314.317505 548.137573,313.810760 
	C562.881165,313.285736 577.589111,311.471436 592.280579,309.917145 
	C597.896729,309.322906 603.423706,307.886200 609.415649,306.908752 
	C617.202881,305.660492 624.697144,304.831757 631.903259,302.917755 
	C651.162170,297.802307 670.297302,292.220978 689.878906,286.853088 
	C693.927612,285.566925 697.631226,284.379913 701.220215,282.912628 
	C709.858093,279.381104 718.442322,275.718292 727.427856,272.062805 
	C731.907471,270.027344 736.007385,268.037506 740.478455,266.026978 
	C743.231567,264.948730 745.613403,263.891174 748.347107,262.796143 
	C754.168518,259.854889 759.638000,256.951111 765.470154,254.018356 
	C769.352600,251.949310 772.872375,249.909225 776.781677,247.878525 
	C782.738525,244.719376 788.305847,241.550842 794.160461,238.233841 
	C797.963623,236.001450 801.479492,233.917557 805.331177,231.802048 
	C807.928040,230.123886 810.189087,228.477341 812.812012,226.850159 
	C814.817505,225.596451 816.461243,224.323395 818.462097,223.020096 
	C821.895203,221.029617 824.971130,219.069382 828.360962,216.962921 
	C834.819153,212.226990 840.963501,207.637253 847.460815,203.019699 
	C852.911316,199.010574 858.008850,195.029266 863.458618,191.018982 
	C866.827942,188.789185 869.845093,186.588379 873.117188,184.218750 
	C875.615784,182.050156 877.859436,180.050369 880.411865,177.912170 
	C883.356018,175.623718 885.991455,173.473663 888.934937,171.213989 
	C893.845093,167.105331 898.447083,163.106293 903.361450,158.963135 
	C909.799438,153.581161 915.925171,148.343292 922.400391,143.054047 
	C927.518066,139.035583 932.286194,135.068497 937.363037,130.952682 
	C942.149292,127.219513 946.626831,123.635071 951.414978,119.908379 
	C957.187378,115.525436 962.649170,111.284744 968.415527,106.899765 
	C973.496155,103.206261 978.272156,99.657059 983.356323,95.956757 
	C1032.048584,59.891445 1083.691650,29.668337 1139.588501,6.402788 
	C1132.522705,4.918888 1125.483398,4.030634 1118.477051,2.932464 
	C1117.247314,2.739715 1116.155518,1.666569 1115.000000,1.000008 
M151.306198,196.000275 
	C150.956238,195.857834 150.606262,195.715378 150.256302,195.572922 
	C150.475739,196.072540 150.695175,196.572174 151.007843,197.772232 
	C152.015228,199.219284 152.977280,200.700531 154.037964,202.107407 
	C158.304428,207.766373 162.601395,213.402344 167.003632,219.746811 
	C169.984451,223.531937 172.965271,227.317062 176.241699,231.723175 
	C179.475937,235.848557 182.710175,239.973938 186.238617,244.707428 
	C189.141510,248.172150 192.044403,251.636887 195.235229,255.719208 
	C198.783081,259.824646 202.330948,263.930084 206.000717,268.732178 
	C210.630447,274.171600 215.260178,279.610992 220.185883,285.660095 
	C222.441467,288.144501 224.697037,290.628876 227.215759,293.698578 
	C228.773514,295.147705 230.331268,296.596832 231.999939,298.738403 
	C234.296219,301.507202 236.592484,304.276001 239.176285,307.653046 
	C242.100128,310.469879 245.023972,313.286682 248.228058,316.712036 
	C252.134659,320.175964 256.041260,323.639923 260.224182,327.709442 
	C264.134125,331.176575 268.044037,334.643677 272.238617,338.725525 
	C275.143829,340.854797 278.049011,342.984070 281.214752,345.662750 
	C281.795715,345.813446 282.376709,345.964142 283.009430,346.798798 
	C284.303772,347.882416 285.598145,348.966064 287.126404,350.605072 
	C288.125977,351.528748 289.125549,352.452454 290.622833,353.882599 
	C292.416595,355.199524 294.210388,356.516479 296.622406,358.134918 
	C299.712860,360.439728 302.803314,362.744537 306.186615,365.675476 
	C311.629700,369.392883 317.072815,373.110260 322.915222,377.338531 
	C328.593292,380.927795 334.271362,384.517029 340.241211,388.736725 
	C347.124573,392.506897 354.007935,396.277069 361.232483,400.678040 
	C367.805054,403.820770 374.377594,406.963501 381.293610,410.736725 
	C389.179077,413.860107 397.064514,416.983459 405.328491,420.758789 
	C417.537750,424.210449 429.747009,427.662109 442.385651,431.796967 
	C445.778259,432.282104 449.163727,432.825775 452.564789,433.242035 
	C465.705780,434.850281 478.814026,437.137085 492.004883,437.829651 
	C511.105347,438.832489 530.040344,436.604675 548.898315,433.129822 
	C570.914734,429.072937 591.980835,422.165009 612.143372,412.784607 
	C625.082703,406.764740 637.265869,399.101654 649.707031,392.032623 
	C671.314026,379.755524 690.442871,364.034149 708.177368,346.918091 
	C724.312439,331.345642 738.946106,314.193451 753.895142,297.428711 
	C759.389587,291.266937 763.891785,284.220428 768.846558,277.577484 
	C766.609253,277.334351 765.179016,277.992065 763.759460,278.672058 
	C748.384277,286.037048 733.135132,293.679932 717.609985,300.713867 
	C688.618958,313.848785 658.590759,323.865021 627.598572,331.359955 
	C599.059448,338.261627 570.272583,342.620331 540.147156,344.018219 
	C535.765808,344.344421 531.381775,344.976379 527.003662,344.937714 
	C515.335449,344.834747 503.669922,344.443237 491.148346,344.019897 
	C480.765930,343.068878 470.383545,342.117828 459.272614,340.786987 
	C451.197693,339.488556 443.122742,338.190125 434.622253,336.212128 
	C425.120667,334.198792 415.619080,332.185455 405.433380,330.011169 
	C397.969452,327.969360 390.505554,325.927582 382.640961,323.230560 
	C381.089813,322.834625 379.522583,322.492493 377.990479,322.033051 
	C372.654114,320.432861 367.329987,318.792053 361.337067,316.832794 
	C356.905579,315.184113 352.474121,313.535461 347.683746,311.263947 
	C345.455658,310.564789 343.227570,309.865631 340.403290,308.884766 
	C339.268280,308.311737 338.133270,307.738708 336.265686,307.010254 
	C334.191498,306.303131 332.117310,305.596008 329.786987,304.339447 
	C329.207916,304.190369 328.628845,304.041290 327.698212,303.272125 
	C324.148376,301.812317 320.598511,300.352539 316.678802,298.266663 
	C311.660950,296.045898 306.643066,293.825165 301.107910,291.100983 
	C295.738556,288.456451 290.369232,285.811920 284.357117,282.843079 
	C280.939911,281.211609 277.522675,279.580139 273.761383,277.336517 
	C270.188782,275.519745 266.616150,273.702972 262.751160,271.264984 
	C260.517822,270.140564 258.284454,269.016113 255.755096,267.271576 
	C253.118088,265.706573 250.481079,264.141541 247.267639,262.106049 
	C240.523315,258.029907 233.778976,253.953766 226.694427,249.286423 
	C221.477386,246.154434 216.260345,243.022430 210.752640,239.277191 
	C207.202728,236.834000 203.652817,234.390793 199.745407,231.341934 
	C194.830643,227.950073 189.915878,224.558212 184.385498,220.842239 
	C180.961777,218.546158 177.538071,216.250092 173.809311,213.338409 
	C172.154221,212.005951 170.534317,210.626755 168.837631,209.349548 
	C163.102173,205.032089 157.339493,200.750793 151.306198,196.000275 
M885.194397,561.719421 
	C887.347473,561.812988 889.499695,561.940369 891.653748,561.994629 
	C905.788940,562.350159 916.079590,555.994141 921.853882,543.312439 
	C928.952454,527.722290 935.381775,511.825531 941.966064,496.005402 
	C942.925232,493.700714 944.102844,492.913391 946.600159,492.938690 
	C959.595215,493.070251 972.592346,493.000000 985.588745,493.000000 
	C1014.906311,493.000000 1044.223877,493.000000 1073.642822,493.000000 
	C1076.611816,500.057648 1079.552368,506.979858 1082.437622,513.924988 
	C1085.324707,520.874451 1088.090698,527.874817 1091.026367,534.803467 
	C1097.871826,550.959778 1107.957520,563.049133 1126.897705,562.225708 
	C1147.508423,561.329651 1160.932983,540.845642 1155.081299,522.794189 
	C1151.797729,512.665344 1146.430908,503.220154 1142.131104,493.410675 
	C1132.868408,472.278748 1123.755493,451.081055 1114.451294,429.967529 
	C1108.502930,416.469269 1102.203247,403.125671 1096.273071,389.619659 
	C1087.061890,368.640900 1078.059326,347.570587 1068.914062,326.562714 
	C1062.966431,312.900452 1057.161133,299.167633 1050.809570,285.693939 
	C1048.083984,279.912140 1044.822632,274.091187 1040.596802,269.368805 
	C1031.638550,259.357788 1019.689941,256.355591 1006.540283,256.963440 
	C990.597534,257.700500 978.502197,264.886322 971.144287,278.884369 
	C965.495422,289.631226 960.944824,300.960052 956.005737,312.074493 
	C946.958679,332.433472 938.033325,352.846619 928.964294,373.195801 
	C923.088074,386.380768 916.961914,399.454437 911.098633,412.645020 
	C901.074402,435.196228 891.113220,457.775818 881.233276,480.390594 
	C875.141785,494.333679 868.641846,508.141968 863.431030,522.414429 
	C857.616699,538.340210 866.735168,557.640381 885.194397,561.719421 
M1214.000000,375.500000 
	C1214.000000,426.324860 1213.970947,477.149719 1214.022217,527.974548 
	C1214.033691,539.436096 1217.982666,549.171021 1227.573242,556.025513 
	C1237.953735,563.444763 1249.395508,564.259277 1260.799072,559.507568 
	C1274.998901,553.590698 1280.921997,541.683716 1280.946411,526.874512 
	C1281.065063,455.053467 1281.031494,383.232086 1280.955933,311.410950 
	C1280.947510,303.333130 1280.772461,295.209198 1279.916870,287.187439 
	C1277.460815,264.160156 1252.632080,253.208359 1233.052490,262.139191 
	C1219.843384,268.164215 1213.988525,279.569824 1213.995972,294.013580 
	C1214.009888,320.842377 1214.000000,347.671204 1214.000000,375.500000 
z"/>
<path fill="#000000" opacity="1.000000" stroke="none" 
	d="
M1.000000,51.000000 
	C1.000000,34.339645 1.000000,17.679291 1.000000,1.000000 
	C356.025848,1.000000 711.051697,1.000000 1066.626709,1.426858 
	C1062.736328,2.564674 1058.287842,3.224668 1053.858887,3.995913 
	C1039.050415,6.574594 1024.122803,8.636267 1009.479919,11.952038 
	C994.680847,15.303173 980.001099,19.402559 965.566406,24.089577 
	C944.125488,31.051567 922.946167,38.819218 901.263977,46.241779 
	C893.900208,49.123009 886.928040,52.006424 879.568359,54.937061 
	C871.437866,57.953842 863.694824,60.923405 855.577759,63.952690 
	C849.136230,66.397118 843.068604,68.781830 836.645264,71.225739 
	C829.510925,74.153473 822.732361,77.022026 815.579041,79.950493 
	C806.456055,83.635254 797.707886,87.260094 788.571899,90.935654 
	C780.789124,93.713089 773.394165,96.439812 765.640503,99.224396 
	C761.841003,100.817238 758.400146,102.352211 754.570557,103.935654 
	C750.775940,105.282478 747.370117,106.580826 743.575806,107.930359 
	C738.776917,109.617386 734.366638,111.253227 729.576660,112.949112 
	C722.119873,115.632126 715.042786,118.255096 707.573242,120.931961 
	C698.438293,123.954315 689.695801,126.922760 680.558899,129.939362 
	C675.776428,131.380707 671.388367,132.773895 666.653198,134.106110 
	C664.476440,134.755966 662.646667,135.466797 660.387451,136.149002 
	C656.270386,137.396347 652.582825,138.672302 648.501282,139.971802 
	C642.871704,141.541061 637.636230,143.086777 632.029907,144.752548 
	C625.105835,146.637238 618.552551,148.401886 611.597046,150.099091 
	C605.795959,151.410187 600.397095,152.788727 594.602051,154.109650 
	C587.137329,155.756927 580.068726,157.461807 572.599609,159.109406 
	C568.267456,159.923676 564.335815,160.795197 560.019897,161.777771 
	C554.742188,162.888504 549.848877,163.888168 544.529114,164.936234 
	C543.439392,164.992233 542.765320,164.925262 542.114258,165.018509 
	C530.534790,166.677017 518.952271,168.315994 507.384216,170.050934 
	C503.568390,170.623230 499.791351,171.454285 495.554962,172.099304 
	C493.614624,172.027771 492.103882,171.898056 490.619049,172.039764 
	C477.074127,173.332474 463.559509,175.181778 449.985413,175.869995 
	C432.928284,176.734818 415.824249,176.712250 398.738739,176.945465 
	C395.494171,176.989746 392.241547,176.441620 388.529358,176.099121 
	C381.642273,175.691895 375.203949,175.523468 368.797699,174.978043 
	C354.422150,173.754120 340.038971,172.553101 325.703644,170.944000 
	C313.388184,169.561615 300.984619,168.336166 288.887482,165.776901 
	C268.130066,161.385513 247.563873,156.079041 226.948929,151.028152 
	C196.684494,143.613098 167.360641,133.210510 138.765488,121.053688 
	C113.875023,110.471848 89.523361,98.559608 65.290733,86.516624 
	C50.323036,79.078064 36.038158,70.268631 21.418304,62.125679 
	C14.647189,58.354305 7.808213,54.704769 1.000000,51.000000 
z"/>
<path fill="#FFFFFF" opacity="1.000000" stroke="none" 
	d="
M1441.468628,564.000000 
	C1440.512695,563.338135 1440.068848,562.135559 1439.531860,562.092346 
	C1418.184326,560.377014 1398.264038,553.474304 1379.183594,544.397522 
	C1369.101440,539.601257 1359.322266,533.621033 1350.579468,526.694519 
	C1339.496216,517.913635 1337.634155,505.232330 1341.496826,493.098236 
	C1345.518433,480.464661 1358.225708,472.955688 1370.082275,472.870758 
	C1380.146240,472.798737 1387.816284,477.072815 1395.711182,482.749603 
	C1410.439819,493.340302 1427.127441,500.635651 1444.925049,503.655548 
	C1460.175537,506.243286 1475.926514,507.012909 1490.964600,500.981964 
	C1500.200684,497.277802 1506.595459,490.721680 1507.798706,480.814850 
	C1508.904053,471.714661 1506.645752,462.974731 1497.659790,458.318756 
	C1488.881104,453.770264 1479.939087,449.210693 1470.574097,446.189423 
	C1452.113281,440.233765 1433.201172,435.686707 1414.685425,429.887817 
	C1401.496460,425.757263 1388.602417,420.326508 1377.655151,411.766998 
	C1362.638672,400.025909 1352.677734,384.829102 1351.081299,365.300018 
	C1350.276123,355.449677 1349.322266,345.434479 1350.234985,335.661865 
	C1351.631104,320.713501 1357.318481,307.064423 1366.494141,294.942719 
	C1377.030518,281.023071 1391.013550,271.711029 1407.012451,265.759460 
	C1416.121216,262.371002 1425.950684,260.364563 1435.631226,259.216614 
	C1446.434082,257.935577 1457.478027,257.570343 1468.342285,258.166168 
	C1488.116211,259.250580 1507.365845,263.383392 1525.417847,271.876923 
	C1533.388672,275.627228 1541.129517,279.874817 1548.915405,284.008392 
	C1560.549438,290.185028 1565.793945,306.247253 1561.550049,320.062958 
	C1556.334351,337.041992 1534.167236,346.642181 1516.890381,336.624420 
	C1501.615112,327.767365 1485.420288,320.504181 1467.937012,317.139038 
	C1455.452393,314.736084 1442.737183,315.309814 1430.894775,320.152069 
	C1413.871094,327.112915 1411.187622,346.907898 1421.114502,358.212036 
	C1427.856689,365.889648 1437.981323,369.070953 1447.723022,371.997253 
	C1468.916626,378.363647 1490.273438,384.228119 1511.286133,391.140930 
	C1526.378296,396.105988 1540.411865,403.665344 1552.047363,414.697601 
	C1563.016602,425.098175 1569.711426,438.041382 1572.041138,453.113129 
	C1572.175903,453.985474 1572.867188,454.771790 1573.649658,455.299072 
	C1574.000000,465.687561 1574.000000,476.375122 1573.643311,487.231140 
	C1572.858643,488.228638 1572.159912,489.021362 1572.042847,489.892212 
	C1569.915527,505.723877 1563.007324,519.366272 1552.387573,531.015686 
	C1535.396240,549.654724 1513.511841,558.649231 1488.962646,562.073792 
	C1488.233032,562.175537 1487.650879,563.334106 1487.000000,564.000000 
	C1471.979126,564.000000 1456.958130,564.000000 1441.468628,564.000000 
z"/>
<path fill="#BEDE19" opacity="1.000000" stroke="none" 
	d="
M1.000000,51.250000 
	C7.808213,54.704769 14.647189,58.354305 21.418304,62.125679 
	C36.038158,70.268631 50.323036,79.078064 65.290733,86.516624 
	C89.523361,98.559608 113.875023,110.471848 138.765488,121.053688 
	C167.360641,133.210510 196.684494,143.613098 226.948929,151.028152 
	C247.563873,156.079041 268.130066,161.385513 288.887482,165.776901 
	C300.984619,168.336166 313.388184,169.561615 325.703644,170.944000 
	C340.038971,172.553101 354.422150,173.754120 368.797699,174.978043 
	C375.203949,175.523468 381.642273,175.691895 388.575958,176.437927 
	C390.079437,177.903992 390.892517,179.270950 392.094025,179.976334 
	C406.539581,188.457123 421.016998,196.884552 435.536285,205.238785 
	C462.854004,220.957123 490.229645,236.574951 517.534363,252.315781 
	C544.835693,268.054626 572.103821,283.851654 599.318909,299.738922 
	C602.753174,301.743744 605.777222,304.451385 608.991333,306.833405 
	C603.423706,307.886200 597.896729,309.322906 592.280579,309.917145 
	C577.589111,311.471436 562.881165,313.285736 548.137573,313.810760 
	C533.904846,314.317505 519.617615,313.401611 505.357788,312.991943 
	C499.257355,312.816650 493.135498,312.613251 487.076202,311.944092 
	C474.570740,310.563110 462.029114,309.283844 449.634216,307.184326 
	C433.942413,304.526367 418.313171,301.397430 402.789185,297.886841 
	C392.692719,295.603638 382.704926,292.653625 372.894379,289.334656 
	C356.649994,283.839020 340.212372,278.662292 324.536102,271.798370 
	C300.610535,261.322510 276.880005,250.252518 253.783554,238.075073 
	C232.105698,226.645569 211.054733,213.934036 190.297562,200.880814 
	C173.789978,190.499939 158.003860,178.944366 142.154449,167.552765 
	C128.788834,157.946396 115.653625,148.004120 102.677452,137.876129 
	C92.472511,129.911087 82.641579,121.464966 72.688133,113.180107 
	C60.464069,103.005272 48.228008,92.843407 36.110416,82.542664 
	C29.708967,77.101006 23.569777,71.351807 17.271811,65.787148 
	C12.097652,61.215450 6.863894,56.711208 1.328277,52.088531 
	C1.000000,52.000000 1.000000,51.500000 1.000000,51.250000 
z"/>
<path fill="#69A620" opacity="1.000000" stroke="none" 
	d="
M901.655518,46.243958 
	C922.946167,38.819218 944.125488,31.051567 965.566406,24.089577 
	C980.001099,19.402559 994.680847,15.303173 1009.479919,11.952038 
	C1024.122803,8.636267 1039.050415,6.574594 1053.858887,3.995913 
	C1058.287842,3.224668 1062.736328,2.564674 1067.087891,1.426858 
	C1082.687622,1.000000 1098.375122,1.000000 1114.531372,1.000008 
	C1116.155518,1.666569 1117.247314,2.739715 1118.477051,2.932464 
	C1125.483398,4.030634 1132.522705,4.918888 1139.588501,6.402788 
	C1083.691650,29.668337 1032.048584,59.891445 983.208069,95.641724 
	C980.506348,93.821632 978.395996,91.931267 975.994324,90.546013 
	C955.075745,78.480537 934.066772,66.571381 913.182739,54.446800 
	C909.121704,52.089081 905.486938,48.997200 901.655518,46.243958 
z"/>
<path fill="#000000" opacity="1.000000" stroke="none" 
	d="
M1487.468628,564.000000 
	C1487.650879,563.334106 1488.233032,562.175537 1488.962646,562.073792 
	C1513.511841,558.649231 1535.396240,549.654724 1552.387573,531.015686 
	C1563.007324,519.366272 1569.915527,505.723877 1572.042847,489.892212 
	C1572.159912,489.021362 1572.858643,488.228638 1573.643311,487.699768 
	C1574.000000,513.265137 1574.000000,538.530334 1574.000000,564.000000 
	C1545.312744,564.000000 1516.625000,564.000000 1487.468628,564.000000 
z"/>
<path fill="#FFFFFF" opacity="1.000000" stroke="none" 
	d="
M884.887878,561.407166 
	C866.735168,557.640381 857.616699,538.340210 863.431030,522.414429 
	C868.641846,508.141968 875.141785,494.333679 881.233276,480.390594 
	C891.113220,457.775818 901.074402,435.196228 911.098633,412.645020 
	C916.961914,399.454437 923.088074,386.380768 928.964294,373.195801 
	C938.033325,352.846619 946.958679,332.433472 956.005737,312.074493 
	C960.944824,300.960052 965.495422,289.631226 971.144287,278.884369 
	C978.502197,264.886322 990.597534,257.700500 1006.540283,256.963440 
	C1019.689941,256.355591 1031.638550,259.357788 1040.596802,269.368805 
	C1044.822632,274.091187 1048.083984,279.912140 1050.809570,285.693939 
	C1057.161133,299.167633 1062.966431,312.900452 1068.914062,326.562714 
	C1078.059326,347.570587 1087.061890,368.640900 1096.273071,389.619659 
	C1102.203247,403.125671 1108.502930,416.469269 1114.451294,429.967529 
	C1123.755493,451.081055 1132.868408,472.278748 1142.131104,493.410675 
	C1146.430908,503.220154 1151.797729,512.665344 1155.081299,522.794189 
	C1160.932983,540.845642 1147.508423,561.329651 1126.897705,562.225708 
	C1107.957520,563.049133 1097.871826,550.959778 1091.026367,534.803467 
	C1088.090698,527.874817 1085.324707,520.874451 1082.437622,513.924988 
	C1079.552368,506.979858 1076.611816,500.057648 1073.642822,493.000000 
	C1044.223877,493.000000 1014.906311,493.000000 985.588745,493.000000 
	C972.592346,493.000000 959.595215,493.070251 946.600159,492.938690 
	C944.102844,492.913391 942.925232,493.700714 941.966064,496.005402 
	C935.381775,511.825531 928.952454,527.722290 921.853882,543.312439 
	C916.079590,555.994141 905.788940,562.350159 891.653748,561.994629 
	C889.499695,561.940369 887.347473,561.812988 884.887878,561.407166 
M1022.453186,371.965668 
	C1017.923706,361.066223 1013.394226,350.166748 1008.549744,338.509369 
	C994.981995,370.817657 981.823364,402.151703 968.448792,434.000000 
	C982.475647,434.000000 995.610413,434.000000 1008.745178,434.000000 
	C1021.780273,434.000000 1034.815430,434.000000 1048.479126,434.000000 
	C1039.757935,413.007233 1031.359619,392.791412 1022.453186,371.965668 
z"/>
<path fill="#FFFFFF" opacity="1.000000" stroke="none" 
	d="
M1214.000000,375.000000 
	C1214.000000,347.671204 1214.009888,320.842377 1213.995972,294.013580 
	C1213.988525,279.569824 1219.843384,268.164215 1233.052490,262.139191 
	C1252.632080,253.208359 1277.460815,264.160156 1279.916870,287.187439 
	C1280.772461,295.209198 1280.947510,303.333130 1280.955933,311.410950 
	C1281.031494,383.232086 1281.065063,455.053467 1280.946411,526.874512 
	C1280.921997,541.683716 1274.998901,553.590698 1260.799072,559.507568 
	C1249.395508,564.259277 1237.953735,563.444763 1227.573242,556.025513 
	C1217.982666,549.171021 1214.033691,539.436096 1214.022217,527.974548 
	C1213.970947,477.149719 1214.000000,426.324860 1214.000000,375.000000 
z"/>
<path fill="#BFDF19" opacity="1.000000" stroke="none" 
	d="
M541.005127,344.166687 
	C570.272583,342.620331 599.059448,338.261627 627.598572,331.359955 
	C658.590759,323.865021 688.618958,313.848785 717.609985,300.713867 
	C733.135132,293.679932 748.384277,286.037048 763.759460,278.672058 
	C765.179016,277.992065 766.609253,277.334351 768.846558,277.577484 
	C763.891785,284.220428 759.389587,291.266937 753.895142,297.428711 
	C738.946106,314.193451 724.312439,331.345642 708.177368,346.918091 
	C690.442871,364.034149 671.314026,379.755524 649.707031,392.032623 
	C637.265869,399.101654 625.082703,406.764740 612.143372,412.784607 
	C591.980835,422.165009 570.914734,429.072937 548.898315,433.129822 
	C530.040344,436.604675 511.105347,438.832489 492.004883,437.829651 
	C478.814026,437.137085 465.705780,434.850281 452.564789,433.242035 
	C449.163727,432.825775 445.778259,432.282104 442.212708,431.102173 
	C443.271912,428.881714 444.298645,427.112213 445.771057,425.871674 
	C452.976685,419.800476 460.346771,413.924866 467.575043,407.880066 
	C490.283356,388.889832 512.982971,369.888824 535.592651,350.781586 
	C537.732178,348.973480 539.216553,346.390106 541.005127,344.166687 
z"/>
<path fill="#B4D81A" opacity="1.000000" stroke="none" 
	d="
M609.415649,306.908752 
	C605.777222,304.451385 602.753174,301.743744 599.318909,299.738922 
	C572.103821,283.851654 544.835693,268.054626 517.534363,252.315781 
	C490.229645,236.574951 462.854004,220.957123 435.536285,205.238785 
	C421.016998,196.884552 406.539581,188.457123 392.094025,179.976334 
	C390.892517,179.270950 390.079437,177.903992 389.039246,176.505630 
	C392.241547,176.441620 395.494171,176.989746 398.738739,176.945465 
	C415.824249,176.712250 432.928284,176.734818 449.985413,175.869995 
	C463.559509,175.181778 477.074127,173.332474 490.619049,172.039764 
	C492.103882,171.898056 493.614624,172.027771 495.618347,172.430267 
	C496.428406,173.206940 496.657227,173.716125 497.049500,173.944046 
	C514.115967,183.859985 531.185669,193.770569 548.279114,203.639954 
	C568.533020,215.334061 588.811584,226.985428 609.074524,238.663864 
	C630.197937,250.838257 651.371765,262.927002 672.399658,275.264343 
	C678.317444,278.736389 683.799622,282.950867 689.481628,286.824799 
	C670.297302,292.220978 651.162170,297.802307 631.903259,302.917755 
	C624.697144,304.831757 617.202881,305.660492 609.415649,306.908752 
z"/>
<path fill="#ABD31B" opacity="1.000000" stroke="none" 
	d="
M689.878906,286.853088 
	C683.799622,282.950867 678.317444,278.736389 672.399658,275.264343 
	C651.371765,262.927002 630.197937,250.838257 609.074524,238.663864 
	C588.811584,226.985428 568.533020,215.334061 548.279114,203.639954 
	C531.185669,193.770569 514.115967,183.859985 497.049500,173.944046 
	C496.657227,173.716125 496.428406,173.206940 496.059937,172.497986 
	C499.791351,171.454285 503.568390,170.623230 507.384216,170.050934 
	C518.952271,168.315994 530.534790,166.677017 542.114258,165.018509 
	C542.765320,164.925262 543.439392,164.992233 544.679077,165.250549 
	C545.887939,166.038376 546.461243,166.662903 547.161560,167.067307 
	C566.840149,178.430389 586.546692,189.745300 606.217651,201.121506 
	C639.959106,220.635025 673.703369,240.144073 707.389160,259.753296 
	C714.074219,263.644806 720.501831,267.978607 727.048157,272.108429 
	C718.442322,275.718292 709.858093,279.381104 701.220215,282.912628 
	C697.631226,284.379913 693.927612,285.566925 689.878906,286.853088 
z"/>
<path fill="#B8DB19" opacity="1.000000" stroke="none" 
	d="
M540.576172,344.092468 
	C539.216553,346.390106 537.732178,348.973480 535.592651,350.781586 
	C512.982971,369.888824 490.283356,388.889832 467.575043,407.880066 
	C460.346771,413.924866 452.976685,419.800476 445.771057,425.871674 
	C444.298645,427.112213 443.271912,428.881714 441.997986,430.760590 
	C429.747009,427.662109 417.537750,424.210449 405.283997,420.122742 
	C406.740173,417.932617 408.109650,416.220032 409.763367,414.850830 
	C418.684875,407.464203 427.735229,400.232727 436.631439,392.816101 
	C451.252167,380.627014 465.867065,368.428192 480.311920,356.032471 
	C484.511078,352.429047 488.122498,348.140778 492.003326,344.166412 
	C503.669922,344.443237 515.335449,344.834747 527.003662,344.937714 
	C531.381775,344.976379 535.765808,344.344421 540.576172,344.092468 
z"/>
<path fill="#93C31D" opacity="1.000000" stroke="none" 
	d="
M680.953308,129.891205 
	C689.695801,126.922760 698.438293,123.954315 707.625854,121.282455 
	C709.872192,122.969322 711.548706,124.572678 713.495911,125.714066 
	C723.520569,131.590195 733.615173,137.347076 743.684509,143.146881 
	C762.098511,153.753052 780.530396,164.328491 798.920288,174.976349 
	C815.007385,184.290924 831.047180,193.687302 847.107849,203.047531 
	C840.963501,207.637253 834.819153,212.226990 828.208740,216.647919 
	C826.957275,215.889191 826.224304,215.208084 825.378784,214.722855 
	C809.117249,205.390213 792.815125,196.127808 776.576477,186.755524 
	C749.132629,170.916000 721.696533,155.062363 694.335144,139.081223 
	C689.675049,136.359390 685.404053,132.971436 680.953308,129.891205 
z"/>
<path fill="#A5CE1B" opacity="1.000000" stroke="none" 
	d="
M573.000122,159.166687 
	C580.068726,157.461807 587.137329,155.756927 594.649536,154.449921 
	C598.629211,157.187408 602.059875,159.708130 605.718994,161.836166 
	C624.361816,172.678360 643.065247,183.416321 661.744507,194.195923 
	C679.705994,204.561295 697.673828,214.915955 715.620544,225.306946 
	C732.128845,234.865158 748.612793,244.465500 765.107483,254.047302 
	C759.638000,256.951111 754.168518,259.854889 748.286072,262.464966 
	C745.571594,260.608887 743.358337,258.893127 740.954773,257.507721 
	C716.100342,243.181793 691.193298,228.947113 666.344482,214.611557 
	C639.056763,198.869049 611.789612,183.090469 584.580139,167.213425 
	C580.533020,164.851883 576.851013,161.864517 573.000122,159.166687 
z"/>
<path fill="#7EB51F" opacity="1.000000" stroke="none" 
	d="
M788.959656,90.884949 
	C797.707886,87.260094 806.456055,83.635254 815.766296,80.237625 
	C822.437988,84.101875 828.513184,87.798233 834.663391,91.365387 
	C857.844666,104.810646 881.085144,118.154404 904.223511,131.673004 
	C910.313599,135.231125 916.116272,139.281235 922.050903,143.105438 
	C915.925171,148.343292 909.799438,153.581161 903.209473,158.649551 
	C894.680969,153.585480 886.704529,148.538910 878.536621,143.823959 
	C851.241455,128.067780 823.859192,112.462540 796.569092,96.697678 
	C793.828064,95.114212 791.486572,92.839081 788.959656,90.884949 
z"/>
<path fill="#9FCB1C" opacity="1.000000" stroke="none" 
	d="
M611.999268,150.166534 
	C618.552551,148.401886 625.105835,146.637238 632.377075,144.940094 
	C634.265015,145.933823 635.340576,147.023468 636.619019,147.761780 
	C656.571289,159.284119 676.558533,170.745636 696.519470,182.252945 
	C714.900085,192.849228 733.251160,203.496567 751.629517,214.096756 
	C765.699219,222.211884 779.791138,230.288528 793.873169,238.382324 
	C788.305847,241.550842 782.738525,244.719376 776.620728,247.506836 
	C774.764160,246.113861 773.552429,244.940002 772.137207,244.115417 
	C759.378357,236.681229 746.599365,229.281082 733.796631,221.922546 
	C695.528870,199.927612 657.232544,177.982224 619.005371,155.917130 
	C616.423706,154.426971 614.323425,152.102814 611.999268,150.166534 
z"/>
<path fill="#8EC01D" opacity="1.000000" stroke="none" 
	d="
M847.460815,203.019714 
	C831.047180,193.687302 815.007385,184.290924 798.920288,174.976349 
	C780.530396,164.328491 762.098511,153.753052 743.684509,143.146881 
	C733.615173,137.347076 723.520569,131.590195 713.495911,125.714066 
	C711.548706,124.572678 709.872192,122.969322 708.018311,121.228561 
	C715.042786,118.255096 722.119873,115.632126 729.723816,113.265419 
	C735.704102,116.955063 741.062500,120.551575 746.628235,123.792007 
	C765.283325,134.653152 784.015442,145.381699 802.712219,156.171310 
	C822.847107,167.790833 842.975281,179.421921 863.106384,191.047974 
	C858.008850,195.029266 852.911316,199.010574 847.460815,203.019714 
z"/>
<path fill="#84B91E" opacity="1.000000" stroke="none" 
	d="
M788.571899,90.935654 
	C791.486572,92.839081 793.828064,95.114212 796.569092,96.697678 
	C823.859192,112.462540 851.241455,128.067780 878.536621,143.823959 
	C886.704529,148.538910 894.680969,153.585480 902.897156,158.793671 
	C898.447083,163.106293 893.845093,167.105331 888.569275,171.043243 
	C883.881470,168.635651 879.882202,166.263397 875.851013,163.946732 
	C842.159058,144.584549 808.441833,125.266045 774.796814,105.822723 
	C771.637268,103.996841 768.921204,101.403542 765.999207,99.166527 
	C773.394165,96.439812 780.789124,93.713089 788.571899,90.935654 
z"/>
<path fill="#B4D81A" opacity="1.000000" stroke="none" 
	d="
M491.575836,344.093140 
	C488.122498,348.140778 484.511078,352.429047 480.311920,356.032471 
	C465.867065,368.428192 451.252167,380.627014 436.631439,392.816101 
	C427.735229,400.232727 418.684875,407.464203 409.763367,414.850830 
	C408.109650,416.220032 406.740173,417.932617 405.094757,419.796783 
	C397.064514,416.983459 389.179077,413.860107 381.266724,410.111450 
	C384.768219,406.242462 388.173645,402.851746 391.845490,399.779541 
	C411.482941,383.349060 431.229462,367.048706 450.826752,350.570740 
	C454.162354,347.766113 456.956726,344.317780 460.001160,341.166809 
	C470.383545,342.117828 480.765930,343.068878 491.575836,344.093140 
z"/>
<path fill="#A2CD1C" opacity="1.000000" stroke="none" 
	d="
M611.597046,150.099091 
	C614.323425,152.102814 616.423706,154.426971 619.005371,155.917130 
	C657.232544,177.982224 695.528870,199.927612 733.796631,221.922546 
	C746.599365,229.281082 759.378357,236.681229 772.137207,244.115417 
	C773.552429,244.940002 774.764160,246.113861 776.231201,247.497437 
	C772.872375,249.909225 769.352600,251.949310 765.470154,254.018341 
	C748.612793,244.465500 732.128845,234.865158 715.620544,225.306946 
	C697.673828,214.915955 679.705994,204.561295 661.744507,194.195923 
	C643.065247,183.416321 624.361816,172.678360 605.718994,161.836166 
	C602.059875,159.708130 598.629211,157.187408 595.045654,154.507538 
	C600.397095,152.788727 605.795959,151.410187 611.597046,150.099091 
z"/>
<path fill="#A9D11B" opacity="1.000000" stroke="none" 
	d="
M727.427856,272.062805 
	C720.501831,267.978607 714.074219,263.644806 707.389160,259.753296 
	C673.703369,240.144073 639.959106,220.635025 606.217651,201.121506 
	C586.546692,189.745300 566.840149,178.430389 547.161560,167.067307 
	C546.461243,166.662903 545.887939,166.038376 545.105469,165.202148 
	C549.848877,163.888168 554.742188,162.888504 560.368652,161.956573 
	C565.320190,164.646744 569.472229,167.384003 573.768738,169.871735 
	C592.293274,180.597717 610.869751,191.233963 629.409119,201.934402 
	C649.671997,213.629562 669.919495,225.351425 690.164917,237.076843 
	C706.819031,246.722275 723.460266,256.389893 740.107239,266.047668 
	C736.007385,268.037506 731.907471,270.027344 727.427856,272.062805 
z"/>
<path fill="#9BC81C" opacity="1.000000" stroke="none" 
	d="
M794.160461,238.233826 
	C779.791138,230.288528 765.699219,222.211884 751.629517,214.096756 
	C733.251160,203.496567 714.900085,192.849228 696.519470,182.252945 
	C676.558533,170.745636 656.571289,159.284119 636.619019,147.761780 
	C635.340576,147.023468 634.265015,145.933823 632.747864,144.820068 
	C637.636230,143.086777 642.871704,141.541061 648.815491,140.120941 
	C668.857971,151.579712 688.141968,162.999664 707.538208,174.225693 
	C736.425964,190.945114 765.417053,207.485931 794.296692,224.219193 
	C798.067566,226.404083 801.438965,229.278580 804.995361,231.833664 
	C801.479492,233.917557 797.963623,236.001450 794.160461,238.233826 
z"/>
<path fill="#ABD21B" opacity="1.000000" stroke="none" 
	d="
M406.117493,330.172119 
	C415.619080,332.185455 425.120667,334.198792 434.690948,336.862305 
	C433.130981,339.171997 431.626862,340.980194 429.852875,342.466217 
	C420.467957,350.327545 410.989014,358.076538 401.592072,365.923645 
	C388.002930,377.271606 374.456146,388.670227 360.891296,400.047241 
	C354.007935,396.277069 347.124573,392.506897 340.241699,388.109863 
	C349.771667,379.349976 359.261353,371.169647 368.841064,363.096130 
	C380.063202,353.638489 391.395691,344.311523 402.591034,334.822479 
	C404.039673,333.594635 404.955078,331.737671 406.117493,330.172119 
z"/>
<path fill="#7AB21F" opacity="1.000000" stroke="none" 
	d="
M922.400391,143.054047 
	C916.116272,139.281235 910.313599,135.231125 904.223511,131.673004 
	C881.085144,118.154404 857.844666,104.810646 834.663391,91.365387 
	C828.513184,87.798233 822.437988,84.101875 816.141052,80.177719 
	C822.732361,77.022026 829.510925,74.153473 836.706055,71.553612 
	C843.677063,75.957321 850.115906,80.290901 856.808167,84.189331 
	C875.292480,94.956924 893.915344,105.486382 912.416077,116.226067 
	C920.711731,121.041679 928.846558,126.134438 937.054321,131.101425 
	C932.286194,135.068497 927.518066,139.035583 922.400391,143.054047 
z"/>
<path fill="#71AD20" opacity="1.000000" stroke="none" 
	d="
M855.951721,63.892952 
	C863.694824,60.923405 871.437866,57.953842 879.718872,55.251648 
	C893.210876,63.200565 906.133362,70.935966 919.127014,78.550026 
	C935.424500,88.100052 951.780273,97.550583 968.110901,107.044052 
	C962.649170,111.284744 957.187378,115.525436 951.098999,119.758163 
	C925.957336,105.489288 901.414185,91.276199 876.944580,76.937614 
	C869.838867,72.773865 862.943542,68.251106 855.951721,63.892952 
z"/>
<path fill="#B0D51A" opacity="1.000000" stroke="none" 
	d="
M361.061890,400.362640 
	C374.456146,388.670227 388.002930,377.271606 401.592072,365.923645 
	C410.989014,358.076538 420.467957,350.327545 429.852875,342.466217 
	C431.626862,340.980194 433.130981,339.171997 434.903748,337.202087 
	C443.122742,338.190125 451.197693,339.488556 459.636902,340.976929 
	C456.956726,344.317780 454.162354,347.766113 450.826752,350.570740 
	C431.229462,367.048706 411.482941,383.349060 391.845490,399.779541 
	C388.173645,402.851746 384.768219,406.242462 381.095001,409.796204 
	C374.377594,406.963501 367.805054,403.820770 361.061890,400.362640 
z"/>
<path fill="#97C61D" opacity="1.000000" stroke="none" 
	d="
M680.558899,129.939362 
	C685.404053,132.971436 689.675049,136.359390 694.335144,139.081223 
	C721.696533,155.062363 749.132629,170.916000 776.576477,186.755524 
	C792.815125,196.127808 809.117249,205.390213 825.378784,214.722855 
	C826.224304,215.208084 826.957275,215.889191 827.894897,216.794113 
	C824.971130,219.069382 821.895203,221.029617 818.145752,222.869812 
	C805.589600,215.809616 793.743469,208.806198 781.817566,201.941132 
	C745.884338,181.256348 709.904053,160.653259 674.001648,139.915237 
	C671.421814,138.425064 669.322876,136.102570 667.000305,134.167084 
	C671.388367,132.773895 675.776428,131.380707 680.558899,129.939362 
z"/>
<path fill="#76AF1F" opacity="1.000000" stroke="none" 
	d="
M855.577759,63.952675 
	C862.943542,68.251106 869.838867,72.773865 876.944580,76.937614 
	C901.414185,91.276199 925.957336,105.489288 950.788452,119.900406 
	C946.626831,123.635071 942.149292,127.219513 937.363037,130.952698 
	C928.846558,126.134438 920.711731,121.041679 912.416077,116.226067 
	C893.915344,105.486382 875.292480,94.956924 856.808167,84.189331 
	C850.115906,80.290901 843.677063,75.957321 837.061768,71.494415 
	C843.068604,68.781830 849.136230,66.397118 855.577759,63.952675 
z"/>
<path fill="#6DA920" opacity="1.000000" stroke="none" 
	d="
M968.415527,106.899750 
	C951.780273,97.550583 935.424500,88.100052 919.127014,78.550026 
	C906.133362,70.935966 893.210876,63.200565 880.106323,55.204430 
	C886.928040,52.006424 893.900208,49.123009 901.263977,46.241768 
	C905.486938,48.997200 909.121704,52.089081 913.182739,54.446800 
	C934.066772,66.571381 955.075745,78.480537 975.994324,90.546013 
	C978.395996,91.931267 980.506348,93.821632 982.900024,95.792831 
	C978.272156,99.657059 973.496155,103.206261 968.415527,106.899750 
z"/>
<path fill="#A6CF1B" opacity="1.000000" stroke="none" 
	d="
M405.775452,330.091644 
	C404.955078,331.737671 404.039673,333.594635 402.591034,334.822479 
	C391.395691,344.311523 380.063202,353.638489 368.841064,363.096130 
	C359.261353,371.169647 349.771667,379.349976 340.095795,387.794647 
	C334.271362,384.517029 328.593292,380.927795 322.899872,376.717041 
	C325.529785,373.623383 328.076965,371.035278 330.837372,368.699127 
	C342.687683,358.670013 354.649750,348.772644 366.469574,338.708008 
	C372.110565,333.904663 377.524719,328.834869 383.041626,323.885773 
	C390.505554,325.927582 397.969452,327.969360 405.775452,330.091644 
z"/>
<path fill="#8ABD1E" opacity="1.000000" stroke="none" 
	d="
M863.458618,191.018997 
	C842.975281,179.421921 822.847107,167.790833 802.712219,156.171310 
	C784.015442,145.381699 765.283325,134.653152 746.628235,123.792007 
	C741.062500,120.551575 735.704102,116.955063 730.103516,113.205376 
	C734.366638,111.253227 738.776917,109.617386 743.618591,108.290100 
	C744.930176,109.510132 745.661865,110.673195 746.713623,111.294037 
	C756.854919,117.280205 767.038635,123.194901 777.231873,129.092545 
	C809.103577,147.533005 840.984741,165.957153 872.862305,184.387573 
	C869.845093,186.588379 866.827942,188.789185 863.458618,191.018997 
z"/>
<path fill="#A8D01B" opacity="1.000000" stroke="none" 
	d="
M740.478455,266.026978 
	C723.460266,256.389893 706.819031,246.722275 690.164917,237.076843 
	C669.919495,225.351425 649.671997,213.629562 629.409119,201.934402 
	C610.869751,191.233963 592.293274,180.597717 573.768738,169.871735 
	C569.472229,167.384003 565.320190,164.646744 560.752930,161.845520 
	C564.335815,160.795197 568.267456,159.923676 572.599609,159.109421 
	C576.851013,161.864517 580.533020,164.851883 584.580139,167.213425 
	C611.789612,183.090469 639.056763,198.869049 666.344482,214.611557 
	C691.193298,228.947113 716.100342,243.181793 740.954773,257.507721 
	C743.358337,258.893127 745.571594,260.608887 747.934204,262.502441 
	C745.613403,263.891174 743.231567,264.948730 740.478455,266.026978 
z"/>
<path fill="#9AC71C" opacity="1.000000" stroke="none" 
	d="
M805.331177,231.802063 
	C801.438965,229.278580 798.067566,226.404083 794.296692,224.219193 
	C765.417053,207.485931 736.425964,190.945114 707.538208,174.225693 
	C688.141968,162.999664 668.857971,151.579712 649.209534,140.097382 
	C652.582825,138.672302 656.270386,137.396347 660.490234,136.537842 
	C661.857788,137.719482 662.591064,138.655518 663.544250,139.220734 
	C671.384827,143.869965 679.241028,148.493958 687.139465,153.044189 
	C724.770935,174.723358 762.440552,196.336288 800.026367,218.094223 
	C804.390869,220.620743 808.319519,223.900330 812.450195,226.830780 
	C810.189087,228.477341 807.928040,230.123886 805.331177,231.802063 
z"/>
<path fill="#88BB1E" opacity="1.000000" stroke="none" 
	d="
M765.640503,99.224396 
	C768.921204,101.403542 771.637268,103.996841 774.796814,105.822723 
	C808.441833,125.266045 842.159058,144.584549 875.851013,163.946732 
	C879.882202,166.263397 883.881470,168.635651 888.261230,171.152863 
	C885.991455,173.473663 883.356018,175.623718 880.086426,177.770782 
	C869.497803,172.104462 859.517273,166.486511 849.593933,160.769180 
	C821.556030,144.615112 793.504089,128.484665 765.561829,112.166473 
	C761.724670,109.925606 758.478882,106.671944 754.959351,103.887177 
	C758.400146,102.352211 761.841003,100.817238 765.640503,99.224396 
z"/>
<path fill="#A1CC1C" opacity="1.000000" stroke="none" 
	d="
M382.841309,323.558167 
	C377.524719,328.834869 372.110565,333.904663 366.469574,338.708008 
	C354.649750,348.772644 342.687683,358.670013 330.837372,368.699127 
	C328.076965,371.035278 325.529785,373.623383 322.700226,376.461609 
	C317.072815,373.110260 311.629700,369.392883 306.359253,365.225586 
	C307.261993,364.378937 308.084656,364.092560 308.708679,363.569275 
	C323.792603,350.920837 338.897705,338.296875 353.885559,325.535248 
	C356.830719,323.027557 359.308075,319.970428 362.001190,317.166687 
	C367.329987,318.792053 372.654114,320.432861 377.990479,322.033051 
	C379.522583,322.492493 381.089813,322.834625 382.841309,323.558167 
z"/>
<path fill="#89BC1E" opacity="1.000000" stroke="none" 
	d="
M754.570557,103.935654 
	C758.478882,106.671944 761.724670,109.925606 765.561829,112.166473 
	C793.504089,128.484665 821.556030,144.615112 849.593933,160.769180 
	C859.517273,166.486511 869.497803,172.104462 879.777649,177.909180 
	C877.859436,180.050369 875.615784,182.050156 873.117188,184.218781 
	C840.984741,165.957153 809.103577,147.533005 777.231873,129.092545 
	C767.038635,123.194901 756.854919,117.280205 746.713623,111.294037 
	C745.661865,110.673195 744.930176,109.510132 744.007080,108.238922 
	C747.370117,106.580826 750.775940,105.282478 754.570557,103.935654 
z"/>
<path fill="#9ECA1C" opacity="1.000000" stroke="none" 
	d="
M361.669128,316.999756 
	C359.308075,319.970428 356.830719,323.027557 353.885559,325.535248 
	C338.897705,338.296875 323.792603,350.920837 308.708679,363.569275 
	C308.084656,364.092560 307.261993,364.378937 306.212830,364.912537 
	C302.803314,362.744537 299.712860,360.439728 296.356873,357.649780 
	C307.060181,347.776764 318.075897,338.442932 328.980164,328.980621 
	C335.425415,323.387665 341.694366,317.591553 348.042633,311.886810 
	C352.474121,313.535461 356.905579,315.184113 361.669128,316.999756 
z"/>
<path fill="#92C21D" opacity="1.000000" stroke="none" 
	d="
M301.625214,291.604370 
	C306.643066,293.825165 311.660950,296.045898 316.717834,298.891602 
	C309.131165,306.030945 301.484772,312.521332 293.885651,319.066589 
	C286.549713,325.385193 279.262573,331.760437 271.953979,338.110809 
	C268.044037,334.643677 264.134125,331.176575 260.233307,327.095276 
	C274.036682,314.855560 287.830933,303.229980 301.625214,291.604370 
z"/>
<path fill="#99C71C" opacity="1.000000" stroke="none" 
	d="
M812.812012,226.850159 
	C808.319519,223.900330 804.390869,220.620743 800.026367,218.094223 
	C762.440552,196.336288 724.770935,174.723358 687.139465,153.044189 
	C679.241028,148.493958 671.384827,143.869965 663.544250,139.220734 
	C662.591064,138.655518 661.857788,137.719482 660.919800,136.566467 
	C662.646667,135.466797 664.476440,134.755966 666.653198,134.106110 
	C669.322876,136.102570 671.421814,138.425064 674.001648,139.915237 
	C709.904053,160.653259 745.884338,181.256348 781.817566,201.941132 
	C793.743469,208.806198 805.589600,215.809616 817.788574,222.900055 
	C816.461243,224.323395 814.817505,225.596451 812.812012,226.850159 
z"/>
<path fill="#8EC01D" opacity="1.000000" stroke="none" 
	d="
M301.366577,291.352661 
	C287.830933,303.229980 274.036682,314.855560 260.095154,326.792480 
	C256.041260,323.639923 252.134659,320.175964 248.234589,316.097290 
	C253.879898,310.628998 259.562103,305.824829 265.146271,300.909271 
	C271.808014,295.045135 278.385742,289.085571 284.999878,283.167389 
	C290.369232,285.811920 295.738556,288.456451 301.366577,291.352661 
z"/>
<path fill="#7EB51F" opacity="1.000000" stroke="none" 
	d="
M219.889923,285.050415 
	C215.260178,279.610992 210.630447,274.171600 206.294815,268.344360 
	C208.932724,266.187866 211.423874,264.581604 213.589828,262.616852 
	C218.161575,258.469818 222.563202,254.135254 227.034637,249.877625 
	C233.778976,253.953766 240.523315,258.029907 247.177277,262.498108 
	C238.021255,270.276947 228.955582,277.663696 219.889923,285.050415 
z"/>
<path fill="#96C51D" opacity="1.000000" stroke="none" 
	d="
M272.096313,338.418152 
	C279.262573,331.760437 286.549713,325.385193 293.885651,319.066589 
	C301.484772,312.521332 309.131165,306.030945 316.902771,299.204651 
	C320.598511,300.352539 324.148376,301.812317 327.727173,303.894501 
	C316.435303,314.045502 305.082367,323.536560 293.831238,333.146790 
	C292.293945,334.459900 291.264526,336.367584 289.634216,338.004028 
	C287.178955,340.005341 285.089478,342.002686 282.689056,344.026184 
	C281.903473,344.406006 281.428833,344.759644 280.954224,345.113281 
	C278.049011,342.984070 275.143829,340.854797 272.096313,338.418152 
z"/>
<path fill="#8ABD1E" opacity="1.000000" stroke="none" 
	d="
M284.678497,283.005249 
	C278.385742,289.085571 271.808014,295.045135 265.146271,300.909271 
	C259.562103,305.824829 253.879898,310.628998 248.094452,315.792999 
	C245.023972,313.286682 242.100128,310.469879 239.344315,307.204773 
	C251.043381,297.153900 262.574432,287.551270 274.105469,277.948669 
	C277.522675,279.580139 280.939911,281.211609 284.678497,283.005249 
z"/>
<path fill="#88BB1E" opacity="1.000000" stroke="none" 
	d="
M273.933411,277.642578 
	C262.574432,287.551270 251.043381,297.153900 239.200562,306.900665 
	C236.592484,304.276001 234.296219,301.507202 232.256912,298.247314 
	C238.040222,293.304626 243.649521,288.951172 249.067978,284.371918 
	C253.837372,280.341217 258.393341,276.057953 263.043549,271.886200 
	C266.616150,273.702972 270.188782,275.519745 273.933411,277.642578 
z"/>
<path fill="#7AB21F" opacity="1.000000" stroke="none" 
	d="
M226.864532,249.582031 
	C222.563202,254.135254 218.161575,258.469818 213.589828,262.616852 
	C211.423874,264.581604 208.932724,266.187866 206.233856,267.996033 
	C202.330948,263.930084 198.783081,259.824646 195.241699,255.096436 
	C197.172546,252.766190 199.129593,251.093857 201.014206,249.343552 
	C204.380295,246.217346 207.702667,243.044052 211.043304,239.890442 
	C216.260345,243.022430 221.477386,246.154434 226.864532,249.582031 
z"/>
<path fill="#99C71C" opacity="1.000000" stroke="none" 
	d="
M330.043152,304.888916 
	C332.117310,305.596008 334.191498,306.303131 336.589844,307.422699 
	C335.713898,309.171448 334.645020,310.661652 333.290375,311.816772 
	C328.123413,316.222900 322.882324,320.542908 317.635803,324.854797 
	C307.399811,333.267395 297.141541,341.652954 286.892487,350.049683 
	C285.598145,348.966064 284.303772,347.882416 282.995911,346.104462 
	C282.988251,344.940094 282.994141,344.470032 283.341888,343.966919 
	C285.789185,341.955872 287.894592,339.977936 290.353699,337.963135 
	C295.856903,334.256561 301.312531,330.942993 306.087830,326.837952 
	C314.296417,319.781586 322.080750,312.231659 330.043152,304.888916 
z"/>
<path fill="#9BC81C" opacity="1.000000" stroke="none" 
	d="
M347.863190,311.575378 
	C341.694366,317.591553 335.425415,323.387665 328.980164,328.980621 
	C318.075897,338.442932 307.060181,347.776764 296.047729,357.499023 
	C294.210388,356.516479 292.416595,355.199524 290.753296,353.488342 
	C305.656036,340.827698 320.477753,328.619873 335.149261,316.234100 
	C337.449097,314.292572 339.066528,311.542633 340.999481,309.166504 
	C343.227570,309.865631 345.455658,310.564789 347.863190,311.575378 
z"/>
<path fill="#83B81E" opacity="1.000000" stroke="none" 
	d="
M220.037903,285.355286 
	C228.955582,277.663696 238.021255,270.276947 247.465485,262.733368 
	C250.481079,264.141541 253.118088,265.706573 255.753448,267.891846 
	C246.152069,276.712524 236.552338,284.912903 226.952621,293.113281 
	C224.697037,290.628876 222.441467,288.144501 220.037903,285.355286 
z"/>
<path fill="#84B91E" opacity="1.000000" stroke="none" 
	d="
M227.084198,293.405945 
	C236.552338,284.912903 246.152069,276.712524 255.901459,268.201904 
	C258.284454,269.016113 260.517822,270.140564 262.897339,271.575592 
	C258.393341,276.057953 253.837372,280.341217 249.067978,284.371918 
	C243.649521,288.951172 238.040222,293.304626 232.201447,297.901062 
	C230.331268,296.596832 228.773514,295.147705 227.084198,293.405945 
z"/>
<path fill="#9AC71C" opacity="1.000000" stroke="none" 
	d="
M340.701385,309.025635 
	C339.066528,311.542633 337.449097,314.292572 335.149261,316.234100 
	C320.477753,328.619873 305.656036,340.827698 290.504425,353.235107 
	C289.125549,352.452454 288.125977,351.528748 287.009460,350.327393 
	C297.141541,341.652954 307.399811,333.267395 317.635803,324.854797 
	C322.882324,320.542908 328.123413,316.222900 333.290375,311.816772 
	C334.645020,310.661652 335.713898,309.171448 336.956146,307.500397 
	C338.133270,307.738708 339.268280,308.311737 340.701385,309.025635 
z"/>
<path fill="#76AF1F" opacity="1.000000" stroke="none" 
	d="
M210.897980,239.583832 
	C207.702667,243.044052 204.380295,246.217346 201.014206,249.343552 
	C199.129593,251.093857 197.172546,252.766190 195.097717,254.787628 
	C192.044403,251.636887 189.141510,248.172150 186.278412,244.121536 
	C190.913101,239.672958 195.508011,235.810287 200.102905,231.947601 
	C203.652817,234.390793 207.202728,236.834000 210.897980,239.583832 
z"/>
<path fill="#71AD20" opacity="1.000000" stroke="none" 
	d="
M199.924164,231.644775 
	C195.508011,235.810287 190.913101,239.672958 186.131317,243.817474 
	C182.710175,239.973938 179.475937,235.848557 176.240784,231.102966 
	C179.160278,227.377304 182.080688,224.271835 185.001114,221.166367 
	C189.915878,224.558212 194.830643,227.950073 199.924164,231.644775 
z"/>
<path fill="#6DA920" opacity="1.000000" stroke="none" 
	d="
M184.693298,221.004303 
	C182.080688,224.271835 179.160278,227.377304 176.092987,230.792480 
	C172.965271,227.317062 169.984451,223.531937 167.261353,219.249054 
	C169.717514,217.152222 171.915939,215.553116 174.114349,213.954010 
	C177.538071,216.250092 180.961777,218.546158 184.693298,221.004303 
z"/>
<path fill="#69A620" opacity="1.000000" stroke="none" 
	d="
M173.961823,213.646210 
	C171.915939,215.553116 169.717514,217.152222 167.203094,218.899078 
	C162.601395,213.402344 158.304428,207.766373 154.037964,202.107407 
	C152.977280,200.700531 152.015228,199.219284 151.138367,197.277802 
	C151.268906,196.783371 151.587219,196.455673 151.587219,196.455673 
	C157.339493,200.750793 163.102173,205.032089 168.837631,209.349548 
	C170.534317,210.626755 172.154221,212.005951 173.961823,213.646210 
z"/>
<path fill="#97C61D" opacity="1.000000" stroke="none" 
	d="
M329.915100,304.614197 
	C322.080750,312.231659 314.296417,319.781586 306.087830,326.837952 
	C301.312531,330.942993 295.856903,334.256561 290.353699,337.963135 
	C291.264526,336.367584 292.293945,334.459900 293.831238,333.146790 
	C305.082367,323.536560 316.435303,314.045502 327.902954,304.204529 
	C328.628845,304.041290 329.207916,304.190369 329.915100,304.614197 
z"/>
<path fill="#97C61D" opacity="1.000000" stroke="none" 
	d="
M282.689056,344.026184 
	C282.994141,344.470032 282.988251,344.940094 282.970032,345.762512 
	C282.376709,345.964142 281.795715,345.813446 281.084473,345.388000 
	C281.428833,344.759644 281.903473,344.406006 282.689056,344.026184 
z"/>
<path fill="#69A620" opacity="1.000000" stroke="none" 
	d="
M151.091751,196.927582 
	C150.695175,196.572174 150.475739,196.072540 150.256302,195.572922 
	C150.606262,195.715378 150.956238,195.857834 151.446716,196.227966 
	C151.587219,196.455673 151.268906,196.783371 151.091751,196.927582 
z"/>
<path fill="#000000" opacity="1.000000" stroke="none" 
	d="
M1022.707153,372.270630 
	C1031.359619,392.791412 1039.757935,413.007233 1048.479126,434.000000 
	C1034.815430,434.000000 1021.780273,434.000000 1008.745178,434.000000 
	C995.610413,434.000000 982.475647,434.000000 968.448792,434.000000 
	C981.823364,402.151703 994.981995,370.817657 1008.549744,338.509369 
	C1013.394226,350.166748 1017.923706,361.066223 1022.707153,372.270630 
z"/>
<path fill="#97C61D" opacity="1.000000" stroke="none" 
	d="
M289.634216,338.004028 
	C287.894592,339.977936 285.789185,341.955872 283.341888,343.966919 
	C285.089478,342.002686 287.178955,340.005341 289.634216,338.004028 
z"/>
</svg>