<svg id="svg" version="1.1" xmlns="http://www.w3.org/2000/svg" xmlns:xlink="http://www.w3.org/1999/xlink" width="400" height="572.1518987341773" viewBox="0, 0, 400,572.1518987341773"><g id="svgg"><path id="path0" d="M226.800 0.600 C 226.800 1.061,226.268 1.205,224.500 1.222 C 219.679 1.269,217.023 1.661,216.950 2.338 C 216.923 2.592,216.878 3.070,216.850 3.400 C 216.811 3.867,216.222 4.000,214.200 4.000 L 211.600 4.000 211.600 5.200 L 211.600 6.400 208.900 6.447 C 207.415 6.473,205.975 6.466,205.700 6.430 C 205.425 6.394,205.200 6.553,205.200 6.782 C 205.200 7.012,204.979 7.155,204.709 7.100 C 204.440 7.045,204.160 7.387,204.087 7.860 C 203.957 8.706,203.753 8.777,200.040 9.260 C 199.732 9.301,199.288 9.843,199.052 10.467 C 198.724 11.337,198.366 11.600,197.512 11.600 C 196.543 11.600,196.400 11.754,196.400 12.800 C 196.400 13.982,196.369 14.000,194.280 14.000 C 192.090 14.000,191.200 14.471,191.200 15.630 C 191.200 16.054,190.760 16.388,190.000 16.540 C 189.050 16.730,188.800 16.989,188.800 17.782 C 188.800 18.846,188.296 19.084,185.600 19.292 C 184.830 19.351,184.176 19.580,184.146 19.800 C 183.982 21.019,183.458 21.920,183.012 21.749 C 182.401 21.515,181.200 22.627,181.200 23.429 C 181.200 23.924,180.465 24.195,179.512 24.051 C 179.111 23.991,178.367 25.462,178.495 26.062 C 178.553 26.333,178.060 26.656,177.400 26.780 C 176.473 26.953,176.172 27.243,176.078 28.056 C 175.985 28.860,175.677 29.165,174.778 29.344 C 173.786 29.543,173.600 29.771,173.600 30.790 C 173.600 31.577,173.390 32.017,173.000 32.050 C 171.806 32.149,171.601 32.203,171.668 32.400 C 171.863 32.977,170.683 34.361,169.901 34.472 C 169.405 34.542,169.000 34.810,169.000 35.067 C 169.000 35.323,168.865 35.668,168.700 35.833 C 168.535 35.998,168.400 36.823,168.400 37.667 C 168.400 39.104,168.325 39.200,167.200 39.200 C 166.095 39.200,166.000 39.311,166.000 40.600 C 166.000 41.889,165.905 42.000,164.800 42.000 C 164.140 42.000,163.578 42.180,163.550 42.400 C 163.523 42.620,163.455 42.980,163.400 43.200 C 163.345 43.420,163.278 43.864,163.250 44.187 C 163.220 44.537,162.957 44.682,162.600 44.545 C 162.270 44.418,162.000 44.524,162.000 44.781 C 162.000 45.037,161.792 45.119,161.538 44.962 C 161.263 44.791,161.185 44.851,161.345 45.111 C 161.492 45.349,161.430 45.658,161.207 45.796 C 160.983 45.934,160.800 46.847,160.800 47.824 C 160.800 49.531,160.753 49.600,159.600 49.600 L 158.400 49.600 158.400 52.000 C 158.400 54.278,158.350 54.400,157.424 54.400 C 156.211 54.400,155.849 54.958,155.740 57.000 C 155.693 57.880,155.642 58.813,155.627 59.073 C 155.612 59.334,155.105 59.604,154.500 59.673 C 153.458 59.793,153.394 59.922,153.280 62.114 C 153.165 64.320,153.104 64.439,151.980 64.664 C 150.834 64.893,150.800 64.968,150.800 67.250 C 150.800 69.219,150.687 69.601,150.100 69.606 C 148.415 69.621,148.130 70.529,148.017 76.250 C 148.005 76.869,147.673 77.165,146.800 77.340 L 145.600 77.580 145.600 81.140 L 145.600 84.700 144.412 84.938 L 143.225 85.175 143.112 90.088 L 143.000 95.000 141.941 95.123 C 140.651 95.272,140.507 96.036,140.461 103.000 C 140.443 105.640,140.422 108.396,140.414 109.124 C 140.406 109.882,140.233 110.344,140.008 110.205 C 138.435 109.233,138.000 110.666,138.000 116.814 L 138.000 122.800 136.818 122.800 C 135.638 122.800,135.636 122.803,135.518 125.500 C 135.419 127.765,135.292 128.182,134.730 128.089 C 133.584 127.900,133.233 128.832,132.918 132.900 C 132.727 135.383,132.636 135.600,131.798 135.600 C 130.713 135.600,130.400 136.271,130.400 138.594 C 130.400 140.154,130.284 140.362,129.200 140.740 C 128.061 141.137,128.000 141.271,128.000 143.379 C 128.000 145.489,127.949 145.600,126.987 145.600 C 126.431 145.600,125.896 145.825,125.800 146.100 C 125.577 146.737,125.276 148.741,125.233 149.873 C 125.209 150.519,124.913 150.780,124.100 150.873 C 123.059 150.993,122.994 151.123,122.880 153.300 C 122.763 155.553,122.736 155.600,121.580 155.600 C 120.498 155.600,120.400 155.716,120.400 157.000 C 120.400 158.277,120.298 158.400,119.245 158.400 C 118.239 158.400,118.055 158.583,117.824 159.811 C 117.679 160.587,117.401 161.124,117.207 161.005 C 117.014 160.885,116.740 160.973,116.600 161.200 C 116.460 161.427,116.189 161.517,115.998 161.399 C 115.807 161.281,115.536 162.043,115.396 163.092 C 115.029 165.828,114.936 166.000,113.813 166.000 C 112.959 166.000,112.800 166.184,112.800 167.175 C 112.800 168.208,112.643 168.364,111.500 168.475 C 110.785 168.544,110.178 168.825,110.150 169.100 C 110.123 169.375,110.078 169.858,110.050 170.173 C 110.023 170.489,109.505 170.804,108.900 170.873 C 108.002 170.977,107.778 171.223,107.681 172.214 C 107.569 173.355,107.454 173.432,105.760 173.506 C 103.898 173.587,102.800 174.279,102.800 175.371 C 102.800 175.724,102.464 176.000,102.033 176.000 C 100.658 176.000,100.000 176.467,100.000 177.443 C 100.000 178.274,99.803 178.406,98.500 178.446 C 97.675 178.472,96.820 178.534,96.600 178.585 C 96.380 178.636,95.975 178.706,95.700 178.739 C 95.425 178.773,95.200 179.250,95.200 179.800 C 95.200 180.350,94.975 180.827,94.700 180.859 C 94.425 180.892,93.930 180.955,93.600 181.000 C 93.270 181.045,92.364 181.108,91.587 181.141 C 90.362 181.192,90.163 181.342,90.086 182.268 C 89.972 183.648,90.401 183.518,85.600 183.627 C 81.018 183.731,80.000 184.020,80.000 185.214 C 80.000 185.964,79.694 186.000,73.376 186.000 C 69.156 186.000,66.841 185.858,66.995 185.608 C 67.905 184.135,66.463 183.600,61.586 183.600 L 56.800 183.600 56.800 182.400 C 56.800 181.291,56.687 181.196,55.300 181.141 C 54.475 181.108,53.530 181.045,53.200 181.000 C 52.870 180.955,52.395 180.892,52.143 180.859 C 51.892 180.827,51.581 180.380,51.452 179.867 C 51.182 178.790,50.995 178.746,46.285 178.663 C 43.546 178.614,42.687 178.732,42.391 179.200 C 41.875 180.017,41.899 182.400,42.424 182.400 C 42.657 182.400,42.733 182.584,42.594 182.810 C 42.455 183.035,42.489 183.194,42.670 183.163 C 43.898 182.949,44.358 183.290,44.475 184.500 C 44.579 185.583,44.783 185.821,45.700 185.927 C 46.305 185.996,46.822 186.221,46.850 186.427 C 46.955 187.210,47.022 187.415,47.330 187.900 C 47.504 188.175,48.087 188.400,48.624 188.400 C 49.442 188.400,49.600 188.594,49.600 189.600 C 49.600 190.260,49.780 190.822,50.000 190.850 C 50.220 190.878,50.580 190.945,50.800 191.000 C 51.020 191.055,51.368 191.123,51.573 191.150 C 51.779 191.178,52.004 191.695,52.073 192.300 C 52.179 193.217,52.417 193.421,53.500 193.525 C 54.274 193.600,54.820 193.883,54.850 194.225 C 55.006 196.019,54.744 195.865,57.775 195.950 C 59.472 195.998,59.555 196.056,59.675 197.300 C 59.779 198.383,59.983 198.621,60.900 198.727 C 61.749 198.824,62.000 199.066,62.000 199.784 C 62.000 200.735,62.668 201.200,64.033 201.200 C 64.464 201.200,64.800 201.476,64.800 201.829 C 64.800 202.432,65.741 203.644,66.186 203.614 C 68.847 203.437,69.600 203.637,69.600 204.520 C 69.600 205.926,70.364 206.400,72.630 206.400 C 74.611 206.400,74.710 206.452,74.941 207.603 C 75.073 208.265,75.320 208.784,75.491 208.756 C 77.762 208.385,82.855 208.880,82.636 209.451 C 82.053 210.971,82.929 211.140,91.725 211.206 C 96.386 211.241,100.560 211.286,101.000 211.306 C 104.256 211.454,115.191 211.141,115.153 210.900 C 114.831 208.864,115.048 208.729,118.500 208.806 C 122.962 208.906,122.800 208.950,122.800 207.633 C 122.800 206.467,122.803 206.466,125.605 206.333 C 127.875 206.225,128.370 206.306,128.196 206.757 C 128.031 207.186,128.106 207.210,128.528 206.860 C 128.828 206.611,129.221 206.540,129.401 206.703 C 129.581 206.867,129.610 206.794,129.466 206.542 C 129.322 206.290,129.474 205.981,129.802 205.854 C 130.131 205.728,130.400 205.169,130.400 204.613 C 130.400 203.641,130.497 203.600,132.824 203.600 C 134.337 203.600,135.154 203.450,135.000 203.200 C 134.864 202.980,134.956 202.800,135.203 202.800 C 135.472 202.800,135.551 202.477,135.400 202.000 C 135.178 201.302,135.328 201.200,136.573 201.200 C 137.892 201.200,138.000 201.109,138.000 200.000 C 138.000 198.815,138.028 198.800,140.151 198.800 C 142.624 198.800,143.200 198.384,143.200 196.600 C 143.200 196.200,143.600 196.000,144.400 196.000 C 145.467 196.000,145.600 195.867,145.600 194.800 C 145.600 193.642,146.788 193.198,148.921 193.560 C 149.353 193.633,150.169 192.722,150.329 191.990 C 150.514 191.137,150.967 190.768,151.913 190.697 C 152.370 190.662,152.656 190.491,152.549 190.317 C 152.441 190.143,152.563 190.000,152.819 190.000 C 153.076 190.000,153.183 189.733,153.058 189.406 C 152.924 189.057,153.153 188.639,153.615 188.392 C 154.047 188.161,154.400 188.081,154.400 188.214 C 154.400 188.348,154.655 188.202,154.966 187.891 C 155.277 187.580,155.519 187.072,155.503 186.763 C 155.380 184.368,155.621 183.600,156.500 183.594 C 157.452 183.587,158.491 183.083,158.434 182.655 C 158.233 181.155,158.457 180.800,159.600 180.800 C 160.667 180.800,160.800 180.667,160.800 179.600 C 160.800 178.533,160.933 178.400,162.000 178.400 C 163.071 178.400,163.200 178.269,163.200 177.179 C 163.200 176.198,163.423 175.881,164.333 175.563 C 164.957 175.346,165.504 174.950,165.549 174.684 C 165.617 174.287,165.822 172.538,165.969 171.100 C 165.986 170.935,166.540 170.800,167.200 170.800 C 168.267 170.800,168.400 170.667,168.400 169.600 C 168.400 168.940,168.580 168.378,168.800 168.350 C 169.020 168.322,169.380 168.255,169.600 168.200 C 169.820 168.145,170.180 168.078,170.400 168.050 C 170.620 168.023,170.800 166.920,170.800 165.600 L 170.800 163.200 172.200 163.200 C 173.531 163.200,173.600 163.132,173.600 161.813 C 173.600 160.872,173.761 160.484,174.100 160.608 C 175.355 161.068,175.887 160.011,175.967 156.900 C 175.997 155.730,176.120 155.600,177.200 155.600 C 178.271 155.600,178.400 155.469,178.400 154.379 C 178.400 153.398,178.623 153.081,179.533 152.763 C 180.157 152.546,180.699 152.150,180.740 151.884 C 180.780 151.618,180.919 150.635,181.048 149.700 C 181.251 148.239,181.419 148.000,182.242 148.000 C 182.769 148.000,183.222 147.820,183.250 147.600 C 183.278 147.380,183.345 147.020,183.400 146.800 C 183.455 146.580,183.523 145.590,183.550 144.600 C 183.598 142.887,183.657 142.800,184.775 142.800 C 185.808 142.800,185.964 142.643,186.075 141.500 C 186.153 140.689,186.396 140.240,186.721 140.307 C 187.008 140.366,187.471 140.186,187.750 139.907 C 188.337 139.320,188.281 139.488,188.630 137.300 C 188.857 135.880,189.052 135.600,189.808 135.600 C 190.909 135.600,191.200 134.930,191.200 132.394 C 191.200 130.575,191.269 130.445,192.298 130.327 C 193.158 130.228,193.440 129.946,193.598 129.033 C 193.746 128.178,194.040 127.848,194.700 127.800 C 195.933 127.709,196.166 127.390,196.252 125.678 C 196.293 124.865,196.343 123.897,196.363 123.527 C 196.386 123.107,196.803 122.805,197.469 122.727 C 198.318 122.626,198.569 122.353,198.693 121.400 C 198.837 120.292,199.063 120.009,199.890 119.899 C 200.350 119.837,201.222 118.891,201.160 118.521 C 200.823 116.536,201.256 115.247,202.300 115.127 C 203.354 115.005,203.405 114.896,203.519 112.500 C 203.636 110.047,203.660 110.000,204.776 110.000 C 205.943 110.000,206.400 109.416,206.400 107.924 C 206.400 107.369,206.588 107.187,207.000 107.345 C 207.330 107.471,207.600 107.390,207.600 107.164 C 207.600 106.938,207.780 106.864,208.000 107.000 C 208.220 107.136,208.421 107.012,208.446 106.724 C 208.472 106.436,208.534 106.020,208.585 105.800 C 208.636 105.580,208.706 104.725,208.739 103.900 C 208.795 102.514,208.891 102.400,210.000 102.400 C 211.199 102.400,211.200 102.397,211.200 100.025 L 211.200 97.651 212.500 97.525 C 213.692 97.410,213.810 97.273,213.926 95.867 C 214.009 94.857,214.219 94.399,214.543 94.523 C 215.200 94.775,216.345 93.902,216.306 93.179 C 216.186 90.987,216.438 90.000,217.120 90.000 C 218.329 90.000,218.800 89.137,218.800 86.920 C 218.800 84.849,218.826 84.800,219.957 84.800 C 221.140 84.800,221.600 84.224,221.600 82.744 C 221.600 82.309,221.773 82.060,221.984 82.190 C 223.014 82.826,224.000 81.415,224.000 79.304 C 224.000 77.233,224.019 77.200,225.200 77.200 C 226.267 77.200,226.400 77.067,226.400 76.000 C 226.400 74.960,227.065 74.414,227.739 74.900 C 228.138 75.188,229.200 73.772,229.200 72.951 C 229.200 72.146,229.654 71.731,230.129 72.100 C 230.405 72.315,231.530 70.893,231.503 70.363 C 231.367 67.732,231.585 67.200,232.800 67.200 C 233.905 67.200,234.000 67.089,234.000 65.800 C 234.000 64.467,234.067 64.400,235.400 64.400 C 236.170 64.400,236.779 64.265,236.753 64.100 C 236.535 62.721,236.891 62.082,238.000 61.860 C 238.953 61.669,239.200 61.412,239.200 60.610 C 239.200 60.054,239.380 59.578,239.600 59.550 C 239.820 59.523,240.180 59.455,240.400 59.400 C 240.620 59.345,240.980 59.278,241.200 59.250 C 241.420 59.223,241.600 58.660,241.600 58.000 C 241.600 56.933,241.733 56.800,242.800 56.800 C 243.460 56.800,244.023 56.620,244.050 56.400 C 244.078 56.180,244.145 55.820,244.200 55.600 C 244.255 55.380,244.322 55.042,244.350 54.850 C 244.378 54.657,244.940 54.392,245.600 54.260 C 246.553 54.069,246.800 53.812,246.800 53.010 C 246.800 52.454,246.980 51.977,247.200 51.950 C 247.420 51.923,247.780 51.855,248.000 51.800 C 248.220 51.745,248.580 51.678,248.800 51.650 C 249.020 51.623,249.200 51.060,249.200 50.400 C 249.200 49.295,249.311 49.200,250.600 49.200 C 251.370 49.200,251.979 49.065,251.953 48.900 C 251.712 47.378,252.056 46.800,253.200 46.800 C 254.255 46.800,254.400 46.661,254.400 45.652 C 254.400 44.476,254.724 44.345,258.682 43.919 C 258.948 43.890,259.104 43.762,259.029 43.633 C 258.579 42.857,259.665 41.600,260.787 41.600 C 261.454 41.600,261.979 41.465,261.953 41.300 C 261.712 39.778,262.056 39.200,263.200 39.200 C 264.267 39.200,264.400 39.067,264.400 38.000 C 264.400 36.852,264.478 36.798,266.200 36.750 C 267.190 36.723,268.180 36.655,268.400 36.600 C 268.620 36.545,268.980 36.477,269.200 36.450 C 269.420 36.423,269.600 35.860,269.600 35.200 C 269.600 34.002,269.605 34.000,271.957 34.000 C 274.388 34.000,275.057 33.535,274.545 32.200 C 274.355 31.707,274.751 31.600,276.767 31.600 C 279.164 31.600,279.225 31.573,279.456 30.418 C 279.684 29.280,279.784 29.231,282.146 29.118 C 284.594 29.000,284.600 28.997,284.725 27.700 L 284.851 26.400 289.025 26.400 C 293.243 26.400,294.296 26.052,294.850 24.473 C 294.945 24.202,297.257 24.000,301.161 23.923 L 307.321 23.800 307.470 22.824 C 307.551 22.288,307.667 21.799,307.727 21.740 C 307.787 21.680,311.495 21.609,315.968 21.584 C 325.651 21.528,325.200 21.645,325.200 19.181 C 325.200 17.048,324.846 16.606,323.013 16.450 C 322.663 16.420,322.518 16.157,322.655 15.800 C 322.782 15.470,322.676 15.200,322.419 15.200 C 322.163 15.200,322.067 15.016,322.206 14.790 C 322.345 14.565,322.311 14.406,322.130 14.437 C 321.948 14.469,321.665 14.451,321.500 14.397 C 320.716 14.143,320.222 14.097,317.800 14.050 L 315.200 14.000 315.200 12.800 L 315.200 11.600 312.600 11.600 C 310.110 11.600,310.000 11.559,310.000 10.624 C 310.000 9.081,309.495 8.937,303.700 8.825 C 302.528 8.802,302.400 8.682,302.400 7.600 L 302.400 6.400 298.627 6.400 L 294.853 6.400 294.727 5.300 L 294.600 4.200 290.900 4.085 C 287.320 3.974,287.200 3.940,287.200 3.034 C 287.200 1.638,286.489 1.310,283.400 1.281 C 277.196 1.223,277.200 1.223,277.200 0.600 C 277.200 0.073,274.133 0.000,252.000 0.000 C 229.867 0.000,226.800 0.073,226.800 0.600 M333.300 26.676 C 333.685 26.776,334.315 26.776,334.700 26.676 C 335.085 26.575,334.770 26.493,334.000 26.493 C 333.230 26.493,332.915 26.575,333.300 26.676 M0.000 408.800 L 0.000 434.000 15.320 434.000 C 31.171 434.000,31.600 433.957,31.600 432.372 C 31.600 431.748,32.218 431.564,35.820 431.119 C 36.051 431.090,36.267 430.710,36.300 430.274 C 36.368 429.365,36.746 428.912,37.590 428.729 C 38.322 428.569,39.233 427.753,39.160 427.321 C 38.823 425.336,39.256 424.047,40.300 423.927 L 41.400 423.800 41.515 420.100 C 41.605 417.201,41.757 416.389,42.215 416.350 C 43.148 416.270,43.370 416.207,43.900 415.870 C 44.291 415.622,44.400 416.735,44.400 420.976 L 44.400 426.400 45.558 426.400 C 46.617 426.400,46.736 426.546,46.952 428.100 C 47.081 429.035,47.220 430.018,47.260 430.284 C 47.350 430.879,49.321 431.600,50.860 431.600 C 51.860 431.600,52.000 431.747,52.000 432.800 L 52.000 434.000 55.702 434.000 C 59.402 434.000,59.405 434.001,59.917 435.158 C 60.372 436.185,60.599 436.300,61.915 436.169 C 64.184 435.944,64.236 435.920,64.298 435.088 C 64.381 433.993,64.178 434.040,69.116 433.973 C 71.633 433.938,73.600 433.745,73.600 433.532 C 73.600 433.324,73.743 433.241,73.917 433.349 C 74.091 433.456,74.262 433.170,74.297 432.713 C 74.376 431.658,74.858 431.176,75.913 431.097 C 76.370 431.062,76.656 430.891,76.549 430.717 C 76.441 430.543,76.551 430.400,76.794 430.400 C 77.037 430.400,77.206 430.175,77.170 429.900 C 76.848 427.418,77.205 426.400,78.400 426.400 L 79.600 426.400 79.664 416.100 C 79.699 410.435,79.801 406.385,79.889 407.100 C 79.978 407.815,80.219 408.423,80.425 408.450 C 80.631 408.478,80.980 408.545,81.200 408.600 C 81.420 408.655,81.780 408.723,82.000 408.750 C 82.233 408.779,82.400 410.300,82.400 412.400 C 82.400 414.380,82.535 416.014,82.700 416.031 C 84.826 416.248,84.754 416.122,84.838 419.743 C 84.912 422.941,85.504 424.276,86.652 423.836 C 87.061 423.679,87.206 424.054,87.224 425.313 C 87.297 430.405,87.560 431.300,88.983 431.300 C 89.871 431.300,90.000 431.471,90.000 432.650 L 90.000 434.000 97.151 434.000 C 105.218 434.000,105.056 434.061,105.151 431.000 C 105.204 429.289,105.611 428.394,106.119 428.870 C 106.332 429.070,107.621 427.685,107.560 427.321 C 107.146 424.883,107.673 421.169,108.400 421.400 C 108.877 421.551,109.200 421.472,109.200 421.203 C 109.200 420.956,109.373 420.860,109.585 420.991 C 109.818 421.135,110.015 419.774,110.085 417.546 C 110.196 414.007,110.236 413.862,111.137 413.796 C 111.652 413.759,112.234 413.474,112.431 413.164 C 112.650 412.817,112.790 414.717,112.794 418.100 C 112.800 423.939,112.746 423.780,114.700 423.707 C 115.046 423.695,115.200 424.419,115.200 426.054 C 115.200 428.363,115.229 428.426,116.400 428.660 C 117.279 428.836,117.602 429.128,117.606 429.750 C 117.615 430.916,118.024 431.376,119.200 431.539 C 120.422 431.709,120.350 431.639,120.530 432.824 L 120.679 433.800 131.379 433.917 C 142.577 434.039,143.481 433.916,143.065 432.328 C 142.909 431.729,143.117 431.600,144.237 431.600 C 145.528 431.600,145.600 431.526,145.600 430.200 C 145.600 428.918,145.699 428.800,146.775 428.800 C 147.808 428.800,147.964 428.643,148.075 427.500 C 148.153 426.689,148.396 426.240,148.721 426.307 C 149.248 426.415,150.222 425.663,150.299 425.090 C 150.542 423.269,150.743 424.626,150.768 428.267 C 150.786 430.724,150.909 433.019,151.043 433.367 C 151.365 434.206,165.389 434.333,165.703 433.500 C 165.897 432.985,165.923 432.176,165.971 424.986 C 165.999 420.885,166.022 420.784,166.808 421.204 C 167.253 421.442,167.793 421.528,168.008 421.395 C 168.250 421.246,168.405 422.274,168.414 424.076 C 168.425 426.320,169.501 430.555,169.586 428.686 C 169.594 428.513,169.953 428.561,170.385 428.792 C 170.817 429.023,171.089 429.434,170.989 429.706 C 170.724 430.430,171.334 431.195,172.331 431.387 C 173.540 431.620,174.054 431.988,173.783 432.428 C 173.656 432.632,173.754 432.800,174.000 432.800 C 174.246 432.800,174.348 432.961,174.226 433.158 C 174.104 433.355,174.258 433.614,174.568 433.732 C 175.678 434.158,197.600 434.003,197.600 433.569 C 197.600 433.340,197.743 433.241,197.917 433.349 C 198.091 433.456,198.262 433.177,198.296 432.727 C 198.376 431.653,198.740 431.444,200.900 431.230 C 201.065 431.213,201.200 430.660,201.200 430.000 C 201.200 428.933,201.333 428.800,202.400 428.800 L 203.600 428.800 203.600 425.200 L 203.600 421.600 204.800 421.600 C 205.460 421.600,206.041 421.375,206.092 421.100 C 206.142 420.825,206.277 426.450,206.392 433.600 L 206.600 446.600 213.416 446.676 C 222.294 446.775,221.512 447.503,221.567 439.082 L 221.600 433.963 224.300 434.082 C 226.262 434.168,226.971 434.343,226.893 434.721 C 226.715 435.588,227.718 436.255,229.200 436.255 C 230.670 436.255,231.827 435.490,231.400 434.800 C 231.035 434.209,231.803 434.046,235.561 433.916 C 238.778 433.805,238.928 433.758,239.070 432.824 C 239.262 431.562,239.463 431.418,241.300 431.231 C 241.465 431.214,241.600 430.120,241.600 428.800 C 241.600 426.403,241.602 426.400,242.792 426.400 C 244.448 426.400,244.495 426.043,244.337 414.646 C 244.229 406.900,244.083 404.730,243.641 404.320 C 243.325 404.026,243.195 404.001,243.342 404.263 C 243.538 404.613,243.358 404.613,242.604 404.263 C 241.841 403.909,241.606 403.494,241.603 402.500 C 241.600 401.323,241.487 401.200,240.400 401.200 C 239.333 401.200,239.200 401.067,239.200 400.000 C 239.200 398.900,239.086 398.800,237.827 398.800 C 236.638 398.800,236.436 398.657,236.327 397.736 C 236.164 396.365,235.970 396.332,228.000 396.298 C 219.984 396.264,219.567 396.354,219.090 398.228 C 218.962 398.728,218.876 398.556,218.846 397.743 C 218.786 396.097,218.563 396.040,212.537 396.131 C 205.870 396.232,206.402 395.591,206.388 403.524 C 206.379 408.255,206.257 409.996,205.968 409.500 C 205.744 409.115,205.128 408.800,204.599 408.800 C 203.700 408.800,203.631 408.640,203.519 406.300 C 203.441 404.665,203.227 403.783,202.900 403.750 C 202.625 403.723,202.130 403.678,201.800 403.650 C 201.411 403.618,201.200 403.178,201.200 402.400 C 201.200 401.333,201.067 401.200,200.000 401.200 C 198.933 401.200,198.800 401.067,198.800 400.000 C 198.800 398.900,198.686 398.800,197.427 398.800 C 196.175 398.800,195.245 397.831,195.492 396.785 C 195.582 396.409,193.589 396.310,186.000 396.316 C 176.731 396.323,176.761 396.319,176.243 397.690 C 175.924 398.537,175.561 398.800,174.712 398.800 C 173.748 398.800,173.600 398.957,173.600 399.975 C 173.600 401.008,173.443 401.164,172.300 401.275 C 171.217 401.379,170.979 401.583,170.873 402.500 C 170.804 403.105,170.579 403.623,170.373 403.650 C 170.168 403.678,169.820 403.745,169.600 403.800 C 169.380 403.855,169.020 403.923,168.800 403.950 C 168.567 403.979,168.400 405.500,168.400 407.600 C 168.400 409.580,168.265 411.213,168.100 411.230 C 167.935 411.246,167.395 411.335,166.900 411.427 L 166.000 411.595 165.953 398.697 C 165.927 391.604,165.929 385.658,165.958 385.484 C 166.242 383.784,165.378 383.571,158.400 383.619 C 151.766 383.665,150.622 383.883,150.833 385.058 C 151.142 386.777,150.701 407.671,150.368 407.100 C 150.144 406.715,149.519 406.400,148.980 406.400 C 148.025 406.400,147.674 405.182,147.970 402.900 C 148.006 402.625,147.837 402.400,147.594 402.400 C 147.351 402.400,147.267 402.216,147.406 401.990 C 147.545 401.765,147.511 401.604,147.330 401.633 C 146.582 401.754,145.166 401.063,145.309 400.647 C 145.449 400.239,144.273 398.800,143.800 398.800 C 143.690 398.800,142.880 398.800,142.000 398.800 C 140.503 398.800,140.400 398.726,140.400 397.647 C 140.400 396.150,140.379 396.146,132.000 396.253 C 124.608 396.347,123.421 396.455,123.365 397.038 C 123.257 398.174,122.615 398.800,121.557 398.800 C 120.544 398.800,120.400 398.946,120.400 399.975 C 120.400 401.008,120.243 401.164,119.100 401.275 C 118.029 401.378,117.778 401.587,117.677 402.462 C 117.590 403.218,117.258 403.599,116.530 403.782 C 115.185 404.119,115.255 404.309,115.170 400.122 C 115.083 395.806,115.609 396.144,108.881 396.084 C 103.160 396.032,102.932 396.088,102.593 397.633 C 102.452 398.275,102.081 398.800,101.768 398.800 C 101.456 398.800,101.200 398.991,101.200 399.224 C 101.200 399.457,101.042 399.550,100.849 399.430 C 100.319 399.103,100.000 401.291,100.000 405.250 L 100.000 408.800 98.800 408.800 C 97.714 408.800,97.599 408.924,97.594 410.100 C 97.589 411.046,97.488 411.242,97.220 410.819 C 97.018 410.500,96.932 410.110,97.029 409.954 C 97.125 409.797,96.664 409.430,96.002 409.137 L 94.800 408.605 94.800 405.092 L 94.800 401.580 93.600 401.340 C 92.464 401.113,92.400 400.997,92.400 399.150 C 92.400 398.078,92.389 397.065,92.376 396.900 C 92.323 396.234,90.632 396.068,85.149 396.187 C 77.584 396.351,77.809 396.283,77.761 398.427 C 77.722 400.152,78.434 401.473,79.160 401.025 C 79.361 400.900,79.588 401.806,79.663 403.038 C 79.738 404.270,79.665 405.361,79.500 405.462 C 79.335 405.564,79.200 405.453,79.200 405.215 C 79.200 404.977,78.760 404.582,78.221 404.337 C 77.542 404.027,77.205 403.510,77.121 402.645 C 77.022 401.628,76.803 401.377,75.924 401.276 C 75.093 401.180,74.820 400.907,74.724 400.076 C 74.606 399.051,74.481 398.994,72.100 398.881 C 69.783 398.771,69.600 398.694,69.600 397.830 C 69.600 396.303,68.900 396.152,62.000 396.190 C 54.897 396.229,54.400 396.336,54.400 397.824 C 54.400 398.750,54.278 398.800,52.000 398.800 L 49.600 398.800 49.600 400.000 C 49.600 400.916,49.419 401.200,48.833 401.200 C 47.377 401.200,46.800 401.666,46.800 402.843 C 46.800 403.878,46.447 404.201,45.489 404.044 C 45.318 404.016,45.071 404.270,44.942 404.608 C 44.731 405.158,44.656 405.156,44.242 404.589 C 43.843 404.044,43.143 403.757,41.900 403.631 C 41.735 403.614,41.600 401.746,41.600 399.480 C 41.600 396.738,41.433 395.180,41.100 394.821 C 40.700 394.390,40.700 394.339,41.100 394.565 C 41.375 394.720,41.600 394.737,41.600 394.603 C 41.600 394.468,41.060 394.170,40.400 393.940 C 39.438 393.605,39.200 393.291,39.200 392.361 C 39.200 391.357,39.049 391.200,38.083 391.200 C 37.175 391.200,36.894 390.962,36.583 389.933 C 36.311 389.034,35.916 388.624,35.224 388.524 C 34.054 388.354,33.971 388.282,33.832 387.337 C 33.772 386.931,33.531 386.600,33.295 386.600 C 33.060 386.600,32.732 386.465,32.567 386.300 C 32.402 386.135,30.429 386.000,28.183 386.000 L 24.100 386.000 23.860 384.800 L 23.620 383.600 11.810 383.600 L 0.000 383.600 0.000 408.800 M381.477 386.256 C 381.325 386.409,381.200 388.663,381.200 391.267 L 381.200 396.000 380.100 396.062 C 379.495 396.097,378.495 396.148,377.877 396.176 C 376.312 396.247,376.017 396.933,375.978 400.600 C 375.956 402.642,375.827 403.511,375.622 403.000 C 375.445 402.560,375.395 402.037,375.512 401.838 C 375.628 401.639,375.559 401.578,375.357 401.703 C 374.766 402.068,373.689 401.051,373.539 399.984 C 373.423 399.162,373.148 398.979,371.867 398.874 C 370.693 398.777,370.389 398.606,370.566 398.144 C 371.183 396.536,369.923 396.264,362.000 396.298 C 354.808 396.328,354.093 396.403,353.618 397.171 C 353.394 397.534,353.219 397.555,353.026 397.243 C 352.876 396.999,352.898 396.789,353.076 396.775 C 353.254 396.761,353.029 396.599,352.575 396.415 C 351.536 395.995,341.364 396.103,340.927 396.539 C 340.749 396.717,340.538 400.174,340.458 404.222 C 340.314 411.491,340.302 411.580,339.456 411.421 C 338.985 411.332,338.465 411.246,338.300 411.230 C 338.135 411.213,338.000 409.599,338.000 407.643 C 338.000 404.101,337.562 403.082,336.361 403.824 C 335.980 404.059,335.614 403.392,335.433 402.131 C 335.362 401.633,334.926 401.360,334.064 401.275 C 332.961 401.165,332.800 401.000,332.800 399.975 C 332.800 398.895,332.685 398.800,331.373 398.800 C 330.149 398.800,329.981 398.691,330.189 398.034 C 330.670 396.518,329.931 396.371,321.200 396.238 C 312.905 396.111,312.800 396.129,312.800 397.647 C 312.800 398.764,312.738 398.800,310.800 398.800 C 309.659 398.800,308.800 398.982,308.800 399.224 C 308.800 399.457,308.633 399.544,308.429 399.418 C 308.224 399.291,307.999 399.585,307.929 400.070 C 307.839 400.683,307.402 401.055,306.500 401.288 C 305.216 401.619,305.200 401.652,305.200 404.011 C 305.200 406.379,305.190 406.400,304.043 406.400 C 302.844 406.400,302.024 407.867,302.653 408.886 C 302.838 409.184,302.696 409.246,302.233 409.068 C 301.849 408.921,301.189 408.800,300.767 408.800 C 300.065 408.800,300.000 408.479,300.000 405.000 L 300.000 401.200 298.800 401.200 C 297.733 401.200,297.600 401.067,297.600 400.000 C 297.600 398.895,297.489 398.800,296.200 398.800 C 294.979 398.800,294.800 398.674,294.800 397.814 C 294.800 396.203,290.695 395.779,280.700 396.359 C 280.198 396.389,280.000 396.739,280.000 397.600 L 280.000 398.800 277.400 398.800 C 275.970 398.800,274.786 398.665,274.769 398.500 C 274.677 397.594,274.430 396.697,274.214 396.481 C 273.708 395.974,260.519 396.203,259.885 396.729 C 259.396 397.135,259.245 397.134,259.109 396.726 C 258.903 396.108,248.600 395.866,247.500 396.454 C 246.849 396.802,246.800 398.122,246.800 415.414 L 246.800 434.000 253.200 434.000 L 259.600 434.000 259.600 422.600 L 259.600 411.200 260.610 411.200 C 261.412 411.200,261.669 410.953,261.860 410.000 C 262.097 408.817,262.137 408.800,264.650 408.800 L 267.200 408.800 267.200 421.400 L 267.200 434.000 273.400 434.000 L 279.600 434.000 279.600 422.600 L 279.600 411.200 280.810 411.200 C 281.834 411.200,282.057 411.016,282.260 410.000 C 282.494 408.830,282.559 408.800,284.850 408.800 L 287.200 408.800 287.205 420.500 C 287.213 435.806,286.184 434.038,295.050 433.982 L 302.400 433.935 302.453 428.668 C 302.482 425.770,302.617 424.030,302.753 424.800 C 302.957 425.956,303.192 426.222,304.100 426.327 C 305.021 426.433,305.200 426.644,305.200 427.627 C 305.200 428.664,305.339 428.800,306.400 428.800 C 307.457 428.800,307.600 428.938,307.600 429.957 C 307.600 431.123,308.177 431.600,309.588 431.600 C 309.986 431.600,310.303 431.825,310.293 432.100 C 310.222 434.005,310.212 434.000,314.200 434.000 C 318.077 434.000,318.238 434.068,318.070 435.633 C 318.041 435.897,318.409 435.979,320.390 436.154 C 321.833 436.281,322.893 435.625,322.707 434.721 C 322.625 434.323,323.781 434.153,327.600 434.000 C 331.188 433.856,332.614 433.659,332.650 433.300 C 332.678 433.025,332.723 432.541,332.750 432.225 C 332.780 431.883,333.326 431.600,334.100 431.525 C 335.237 431.416,335.415 431.240,335.524 430.124 C 335.625 429.075,335.838 428.827,336.724 428.724 C 337.796 428.600,337.800 428.586,337.915 424.900 C 337.978 422.865,338.203 421.200,338.415 421.200 C 338.627 421.200,338.915 421.215,339.055 421.234 C 339.196 421.253,339.456 421.033,339.634 420.746 C 340.246 419.755,340.363 420.650,340.421 426.785 C 340.497 434.795,339.767 434.000,347.043 434.000 L 353.200 434.000 353.200 423.776 C 353.200 417.352,353.343 413.641,353.584 413.790 C 354.614 414.426,355.600 413.015,355.600 410.904 L 355.600 408.800 358.200 408.800 L 360.800 408.800 360.800 410.000 C 360.800 411.067,360.933 411.200,362.000 411.200 L 363.200 411.200 363.246 421.900 C 363.272 427.785,363.317 432.870,363.346 433.200 C 363.391 433.701,364.444 433.818,369.700 433.910 L 376.000 434.020 376.000 420.961 C 376.000 410.559,376.102 407.986,376.500 408.317 C 377.085 408.803,377.068 408.800,379.400 408.800 L 381.200 408.800 381.200 420.000 C 381.200 427.167,381.344 431.218,381.600 431.250 C 381.820 431.277,382.180 431.345,382.400 431.400 C 382.620 431.455,382.968 431.523,383.173 431.550 C 383.379 431.577,383.604 432.095,383.673 432.700 L 383.800 433.800 391.900 433.908 L 400.000 434.017 400.000 429.008 L 400.000 424.000 398.000 424.000 C 396.900 424.000,396.000 423.820,396.000 423.600 C 396.000 422.529,395.120 421.529,394.321 421.693 C 393.913 421.777,393.776 420.387,393.690 415.300 L 393.580 408.800 396.790 408.800 L 400.000 408.800 400.000 402.369 L 400.000 395.937 398.700 396.027 C 397.985 396.076,396.551 396.090,395.512 396.058 L 393.625 396.000 393.512 391.100 L 393.400 386.200 387.577 386.090 C 384.374 386.029,381.629 386.104,381.477 386.256 M24.000 399.000 C 24.227 399.140,24.320 399.407,24.205 399.592 C 23.794 400.256,24.440 401.029,25.477 401.115 C 26.816 401.226,26.739 401.108,26.858 403.212 C 26.948 404.787,27.549 406.057,28.186 406.014 C 28.304 406.006,28.586 406.000,28.814 406.000 C 29.080 406.000,29.187 407.468,29.114 410.100 C 29.016 413.614,28.908 414.185,28.353 414.095 C 27.688 413.986,26.724 414.850,26.833 415.458 C 27.216 417.589,26.762 418.753,25.500 418.875 C 24.357 418.985,24.185 419.157,24.075 420.300 L 23.949 421.600 18.975 421.600 L 14.000 421.600 14.000 410.216 L 14.000 398.832 17.300 398.710 C 21.273 398.562,23.444 398.656,24.000 399.000 M115.200 407.155 C 115.200 408.576,115.097 408.724,114.000 408.885 C 112.842 409.055,112.800 409.007,112.800 407.507 C 112.800 406.581,112.960 406.052,113.197 406.198 C 113.415 406.333,113.910 406.259,114.297 406.034 C 114.684 405.809,115.045 405.619,115.100 405.612 C 115.155 405.605,115.200 406.300,115.200 407.155 M64.885 410.000 L 65.061 411.200 61.697 411.200 C 59.149 411.200,58.390 411.079,58.566 410.700 C 58.695 410.425,58.911 409.885,59.046 409.500 C 59.549 408.075,64.667 408.513,64.885 410.000 M135.600 410.000 L 135.600 411.200 131.669 411.200 L 127.739 411.200 127.915 410.000 L 128.091 408.800 131.845 408.800 L 135.600 408.800 135.600 410.000 M191.200 415.200 L 191.200 421.600 190.000 421.600 C 188.933 421.600,188.800 421.733,188.800 422.800 L 188.800 424.000 186.250 424.000 C 183.737 424.000,183.697 423.983,183.460 422.800 C 183.269 421.847,183.012 421.600,182.210 421.600 L 181.200 421.600 181.200 416.157 C 181.200 411.484,181.285 410.747,181.800 410.945 C 182.130 411.071,182.400 410.990,182.400 410.764 C 182.400 410.538,182.584 410.467,182.810 410.606 C 183.035 410.745,183.194 410.711,183.163 410.530 C 182.878 408.889,183.086 408.800,187.200 408.800 L 191.200 408.800 191.200 415.200 M229.200 410.000 C 229.200 411.067,229.333 411.200,230.400 411.200 L 231.600 411.200 231.600 415.200 C 231.600 417.567,231.437 419.220,231.200 419.250 C 230.980 419.277,230.613 419.323,230.385 419.350 C 229.657 419.438,229.212 420.551,229.206 422.300 L 229.200 424.000 226.600 424.000 C 224.363 424.000,224.000 423.899,224.000 423.280 C 224.000 422.358,223.242 421.600,222.320 421.600 C 221.585 421.600,221.590 421.632,221.503 416.400 C 221.494 415.850,221.512 413.915,221.543 412.100 L 221.600 408.800 225.400 408.800 L 229.200 408.800 229.200 410.000 M325.302 409.300 C 325.841 410.904,325.225 411.200,321.353 411.200 L 317.600 411.200 317.600 410.000 L 317.600 408.800 321.367 408.800 C 324.024 408.800,325.183 408.947,325.302 409.300 M65.600 422.000 C 65.600 422.220,65.420 422.400,65.200 422.400 C 64.980 422.400,64.800 422.760,64.800 423.200 C 64.800 424.746,59.744 424.363,59.515 422.800 L 59.339 421.600 62.469 421.600 C 64.290 421.600,65.600 421.767,65.600 422.000 M135.600 422.800 L 135.600 424.000 133.000 424.000 C 131.203 424.000,130.391 423.846,130.369 423.500 C 130.353 423.225,130.278 422.685,130.205 422.300 C 130.088 421.688,130.418 421.600,132.835 421.600 L 135.600 421.600 135.600 422.800 M325.379 422.900 C 325.426 423.997,325.418 424.000,322.713 424.000 C 320.119 424.000,319.773 423.837,319.953 422.700 C 319.979 422.535,319.820 422.400,319.600 422.400 C 319.380 422.400,319.200 422.212,319.200 421.983 C 319.200 420.836,325.330 421.745,325.379 422.900 M91.308 505.637 C 91.698 505.864,91.912 506.218,91.785 506.425 C 91.657 506.631,91.743 506.800,91.976 506.800 C 92.209 506.800,92.400 506.656,92.400 506.480 C 92.400 506.015,91.510 505.198,91.020 505.212 C 90.789 505.219,90.919 505.410,91.308 505.637 " stroke="none" fill="#44a44b" fill-rule="evenodd"></path><path id="path1" d="M2.741 95.123 C 1.372 95.281,1.211 95.944,1.211 101.400 C 1.211 107.021,1.364 107.600,2.847 107.600 L 4.000 107.600 4.000 111.400 L 4.000 115.200 5.200 115.200 L 6.400 115.200 6.400 118.520 C 6.400 121.946,6.735 122.800,8.080 122.800 C 8.684 122.800,8.808 123.169,8.847 125.100 C 8.925 128.863,9.239 129.781,10.502 129.927 C 11.564 130.049,11.600 130.133,11.600 132.461 C 11.600 134.770,11.650 134.888,12.800 135.322 C 13.893 135.735,14.000 135.939,14.000 137.608 C 14.000 139.522,14.508 140.400,15.615 140.400 C 16.104 140.400,16.363 140.984,16.635 142.700 C 16.969 144.806,17.093 145.011,18.100 145.127 C 19.062 145.237,19.200 145.426,19.200 146.627 C 19.200 147.886,19.300 148.000,20.400 148.000 C 21.582 148.000,21.600 148.031,21.600 150.120 C 21.600 152.323,22.071 153.200,23.253 153.200 C 23.713 153.200,23.990 153.572,24.073 154.300 C 24.179 155.217,24.417 155.421,25.500 155.525 C 26.643 155.636,26.800 155.792,26.800 156.825 C 26.800 157.858,26.942 158.000,27.975 158.000 C 29.008 158.000,29.164 158.157,29.275 159.300 C 29.378 160.375,29.586 160.621,30.476 160.724 C 31.307 160.820,31.580 161.093,31.676 161.924 C 31.779 162.814,32.025 163.022,33.100 163.125 C 34.243 163.236,34.400 163.392,34.400 164.425 C 34.400 165.458,34.542 165.600,35.575 165.600 C 36.608 165.600,36.764 165.757,36.875 166.900 C 36.978 167.968,37.188 168.222,38.054 168.322 C 38.860 168.416,39.164 168.722,39.344 169.622 C 39.574 170.770,39.642 170.800,41.990 170.800 L 44.400 170.800 44.400 172.000 C 44.400 173.100,44.514 173.200,45.773 173.200 C 46.974 173.200,47.163 173.338,47.273 174.298 C 47.418 175.553,48.337 175.874,52.012 175.953 C 54.086 175.997,54.253 176.075,54.678 177.200 L 55.131 178.400 61.165 178.400 L 67.200 178.400 67.200 179.600 L 67.200 180.800 77.200 180.800 L 87.200 180.800 87.200 179.600 L 87.200 178.400 91.720 178.400 C 96.368 178.400,97.200 178.148,97.200 176.739 C 97.200 176.159,97.630 176.018,99.700 175.919 C 102.192 175.800,102.200 175.796,102.324 174.518 C 102.447 173.243,102.459 173.236,104.924 173.118 L 107.400 173.000 107.400 169.600 L 107.400 166.200 100.005 165.916 C 95.938 165.759,92.557 165.470,92.491 165.272 C 91.963 163.690,91.326 163.465,86.856 163.281 C 83.032 163.123,82.400 163.002,82.400 162.429 C 82.400 161.271,81.509 160.800,79.320 160.800 C 77.749 160.800,77.200 160.652,77.200 160.229 C 77.200 158.893,76.014 158.400,72.797 158.400 L 69.651 158.400 69.525 157.100 C 69.415 155.957,69.243 155.785,68.100 155.675 C 67.133 155.581,66.800 155.354,66.800 154.789 C 66.800 154.080,65.633 153.122,64.916 153.242 C 63.153 153.536,62.000 153.141,62.000 152.243 C 62.000 151.091,61.354 150.800,58.793 150.800 C 56.894 150.800,56.848 150.771,56.725 149.500 C 56.621 148.417,56.417 148.179,55.500 148.073 C 54.772 147.990,54.400 147.713,54.400 147.253 C 54.400 146.071,53.523 145.600,51.320 145.600 C 49.231 145.600,49.200 145.582,49.200 144.400 C 49.200 143.333,49.067 143.200,48.000 143.200 C 46.931 143.200,46.800 143.068,46.800 141.990 C 46.800 140.966,46.616 140.743,45.600 140.540 C 44.840 140.388,44.400 140.054,44.400 139.630 C 44.400 138.691,43.604 138.000,42.520 138.000 C 41.854 138.000,41.600 137.770,41.600 137.165 C 41.600 136.615,41.212 136.184,40.464 135.902 C 39.830 135.662,39.148 134.997,38.922 134.398 C 38.515 133.321,37.220 132.800,34.950 132.800 C 34.161 132.800,34.000 132.596,34.000 131.600 C 34.000 130.533,33.867 130.400,32.800 130.400 C 31.733 130.400,31.600 130.267,31.600 129.200 C 31.600 128.139,31.464 128.000,30.425 128.000 C 29.392 128.000,29.236 127.843,29.125 126.700 C 29.015 125.557,28.843 125.385,27.700 125.275 C 26.422 125.151,26.400 125.115,26.400 123.140 C 26.400 121.282,26.311 121.097,25.219 120.685 C 24.409 120.379,24.000 119.924,23.919 119.235 C 23.837 118.544,23.489 118.159,22.802 117.998 C 22.241 117.867,21.741 117.423,21.659 116.982 C 21.439 115.794,20.803 115.200,19.751 115.200 C 18.961 115.200,18.800 114.997,18.800 114.000 C 18.800 112.939,18.664 112.800,17.625 112.800 C 16.592 112.800,16.436 112.643,16.325 111.500 C 16.223 110.434,16.011 110.178,15.151 110.078 C 14.234 109.972,14.071 109.727,13.851 108.119 C 13.563 106.021,13.029 105.200,11.951 105.200 C 11.388 105.200,11.200 104.908,11.200 104.032 C 11.200 103.064,10.998 102.819,10.024 102.605 C 9.127 102.408,8.819 102.092,8.724 101.273 C 8.627 100.438,8.356 100.172,7.500 100.073 C 6.523 99.961,6.399 99.782,6.395 98.473 C 6.383 95.377,5.728 94.777,2.741 95.123 " stroke="none" fill="#ec2424" fill-rule="evenodd"></path><path id="path2" d="M308.023 26.668 C 303.726 26.834,302.800 27.150,302.800 28.449 C 302.800 29.127,302.433 29.205,299.000 29.250 C 296.910 29.277,295.020 29.345,294.800 29.400 C 294.580 29.455,294.133 29.523,293.808 29.550 C 293.482 29.578,293.102 30.050,292.964 30.600 C 292.751 31.449,292.482 31.600,291.183 31.600 C 289.054 31.600,287.600 32.225,287.600 33.140 C 287.600 33.936,286.252 34.400,283.940 34.400 C 282.971 34.400,282.740 34.598,282.540 35.600 C 282.306 36.770,282.241 36.800,279.950 36.800 C 278.657 36.800,277.578 36.980,277.550 37.200 C 277.522 37.420,277.455 37.780,277.400 38.000 C 277.345 38.220,277.278 38.580,277.250 38.800 C 277.223 39.020,276.582 39.200,275.826 39.200 C 273.803 39.200,272.400 39.846,272.400 40.779 C 272.400 41.344,272.021 41.675,271.100 41.912 C 270.091 42.171,269.772 42.488,269.673 43.323 C 269.560 44.288,269.384 44.400,267.973 44.400 C 266.447 44.400,264.800 45.438,264.800 46.400 C 264.800 46.620,264.453 46.800,264.029 46.800 C 263.048 46.800,261.890 47.937,262.159 48.637 C 262.296 48.994,261.906 49.256,260.982 49.430 C 259.785 49.654,259.600 49.844,259.600 50.845 C 259.600 51.855,259.453 52.000,258.432 52.000 C 257.464 52.000,257.219 52.202,257.005 53.176 C 256.808 54.073,256.492 54.381,255.673 54.476 C 254.845 54.572,254.572 54.845,254.476 55.673 C 254.381 56.492,254.073 56.808,253.176 57.005 C 252.202 57.219,252.000 57.464,252.000 58.432 C 252.000 59.457,251.857 59.600,250.827 59.600 C 249.844 59.600,249.633 59.779,249.527 60.698 C 249.426 61.566,249.149 61.839,248.200 62.000 C 247.246 62.162,246.974 62.432,246.872 63.318 C 246.772 64.186,246.486 64.483,245.572 64.666 C 244.602 64.860,244.400 65.098,244.400 66.050 C 244.400 67.061,244.255 67.200,243.200 67.200 C 242.133 67.200,242.000 67.333,242.000 68.400 C 242.000 69.274,241.810 69.602,241.300 69.606 C 240.198 69.616,239.478 70.245,239.405 71.263 C 239.359 71.903,239.052 72.242,238.437 72.332 C 237.863 72.416,237.388 72.888,237.129 73.632 C 236.905 74.274,236.559 74.800,236.361 74.800 C 235.452 74.800,234.400 76.472,234.400 77.917 C 234.400 79.284,234.271 79.473,233.100 79.817 C 232.106 80.110,231.771 80.454,231.676 81.276 C 231.580 82.107,231.307 82.380,230.476 82.476 C 229.884 82.544,229.378 82.825,229.350 83.100 C 229.322 83.375,229.278 83.960,229.250 84.400 C 229.222 84.840,228.943 85.200,228.629 85.200 C 227.536 85.200,226.800 86.419,226.800 88.229 C 226.800 89.845,226.714 90.000,225.814 90.000 C 224.599 90.000,224.000 91.032,224.000 93.124 C 224.000 94.555,223.890 94.722,222.800 94.940 C 221.784 95.143,221.600 95.366,221.600 96.390 C 221.600 97.289,221.415 97.600,220.880 97.600 C 219.696 97.600,219.200 98.450,219.200 100.480 C 219.200 102.217,219.112 102.400,218.280 102.400 C 217.116 102.400,216.400 103.106,216.400 104.253 C 216.400 104.803,216.084 105.246,215.577 105.407 C 214.649 105.702,214.000 107.095,214.000 108.794 C 214.000 109.738,213.792 109.982,212.800 110.200 C 211.833 110.412,211.600 110.671,211.597 111.532 C 211.596 112.292,211.259 112.791,210.427 113.264 C 209.502 113.791,209.204 114.303,208.989 115.733 C 208.765 117.227,208.520 117.619,207.559 118.017 C 206.483 118.462,206.400 118.652,206.400 120.649 C 206.400 122.762,206.379 122.800,205.225 122.800 C 204.192 122.800,204.036 122.957,203.925 124.100 C 203.828 125.106,203.592 125.429,202.878 125.531 C 201.825 125.680,201.200 126.981,201.200 129.026 C 201.200 130.082,201.034 130.400,200.480 130.400 C 199.507 130.400,198.800 131.173,198.800 132.237 C 198.800 132.842,198.485 133.192,197.784 133.368 C 197.225 133.509,196.868 133.786,196.990 133.984 C 197.113 134.182,197.030 134.458,196.807 134.596 C 196.583 134.734,196.400 135.557,196.400 136.424 C 196.400 137.768,196.274 138.000,195.544 138.000 C 194.300 138.000,193.627 139.140,193.613 141.273 C 193.601 143.016,193.523 143.156,192.500 143.273 C 191.636 143.373,191.373 143.636,191.273 144.500 C 191.161 145.479,191.000 145.640,190.186 145.586 C 189.427 145.535,188.800 146.977,188.800 148.771 C 188.800 150.762,188.778 150.800,187.590 150.800 C 186.559 150.800,186.344 150.982,186.134 152.031 C 185.979 152.807,185.550 153.391,184.975 153.609 C 184.234 153.891,184.011 154.369,183.788 156.156 C 183.539 158.153,183.416 158.366,182.457 158.478 C 181.668 158.569,181.370 158.854,181.283 159.603 C 181.211 160.215,180.712 160.865,180.000 161.274 C 179.035 161.828,178.789 162.290,178.566 163.971 C 178.313 165.876,178.227 166.000,177.148 166.000 C 176.139 166.000,176.000 166.145,176.000 167.200 C 176.000 167.978,175.789 168.418,175.400 168.450 C 175.070 168.478,174.575 168.523,174.300 168.550 C 174.025 168.578,173.744 169.185,173.675 169.900 C 173.584 170.843,173.350 171.200,172.824 171.200 C 171.963 171.200,171.029 172.200,171.372 172.755 C 171.505 172.969,171.430 173.258,171.207 173.396 C 170.983 173.534,170.800 174.177,170.800 174.824 C 170.800 175.864,170.661 176.000,169.600 176.000 C 168.539 176.000,168.400 176.136,168.400 177.173 C 168.400 178.156,168.221 178.367,167.300 178.473 C 166.437 178.573,166.173 178.836,166.074 179.695 C 165.976 180.547,165.664 180.864,164.674 181.118 C 163.701 181.369,163.371 181.695,163.276 182.499 C 163.181 183.305,162.900 183.581,162.076 183.676 C 161.244 183.772,160.972 184.044,160.876 184.876 C 160.780 185.707,160.507 185.980,159.676 186.076 C 158.852 186.171,158.571 186.446,158.478 187.248 C 158.387 188.039,158.043 188.386,157.078 188.661 C 156.099 188.940,155.770 189.279,155.673 190.113 C 155.568 191.020,155.352 191.200,154.373 191.200 C 153.348 191.200,153.200 191.345,153.200 192.348 C 153.200 193.421,153.071 193.514,151.242 193.757 C 149.309 194.013,148.112 194.810,148.563 195.541 C 148.827 195.967,147.916 196.400,146.757 196.400 C 146.214 196.400,145.908 196.761,145.740 197.600 C 145.540 198.599,145.308 198.800,144.350 198.800 C 143.339 198.800,143.200 198.945,143.200 200.000 C 143.200 201.148,143.122 201.202,141.400 201.250 C 138.630 201.327,138.000 201.610,138.000 202.778 C 138.000 203.341,137.574 203.573,136.149 203.787 C 133.528 204.180,133.200 204.364,133.200 205.443 C 133.200 206.303,133.018 206.405,131.400 206.450 C 128.737 206.524,128.279 206.691,128.150 207.633 C 128.123 207.835,128.078 208.180,128.050 208.400 C 128.022 208.623,126.775 208.800,125.226 208.800 C 121.922 208.800,120.400 209.287,120.400 210.344 C 120.400 211.072,119.909 211.114,109.652 211.262 C 97.745 211.432,97.665 211.450,97.749 213.908 C 97.823 216.088,98.178 216.400,100.574 216.400 C 102.616 216.400,102.709 216.447,102.940 217.600 L 103.180 218.800 130.600 218.800 L 158.020 218.800 158.260 217.600 L 158.500 216.400 163.260 216.400 L 168.020 216.400 168.251 215.244 L 168.482 214.088 172.712 213.931 C 175.574 213.825,176.995 213.616,177.105 213.285 C 177.195 213.015,177.428 212.893,177.622 213.014 C 177.817 213.134,178.091 212.775,178.232 212.216 C 178.468 211.275,178.657 211.200,180.793 211.200 C 183.036 211.200,183.107 211.167,183.340 210.000 C 183.575 208.825,183.631 208.800,186.000 208.800 C 188.369 208.800,188.425 208.775,188.660 207.600 C 188.878 206.510,189.045 206.400,190.476 206.400 C 192.568 206.400,193.600 205.801,193.600 204.586 C 193.600 203.675,193.746 203.600,195.520 203.600 C 197.537 203.600,198.400 203.104,198.400 201.945 C 198.400 201.454,198.780 201.214,199.700 201.125 C 200.783 201.021,201.021 200.817,201.127 199.900 C 201.233 198.979,201.444 198.800,202.427 198.800 C 203.501 198.800,203.600 198.682,203.600 197.400 L 203.600 196.000 205.500 195.994 C 207.680 195.987,208.185 195.745,208.565 194.525 C 208.741 193.960,209.222 193.605,209.919 193.525 C 210.756 193.428,211.028 193.157,211.124 192.324 C 211.227 191.438,211.475 191.225,212.524 191.124 C 213.635 191.016,213.816 190.835,213.924 189.724 C 214.025 188.675,214.238 188.427,215.124 188.324 C 215.956 188.228,216.228 187.956,216.324 187.124 C 216.420 186.293,216.693 186.020,217.524 185.924 C 218.349 185.829,218.628 185.554,218.722 184.746 C 218.816 183.938,219.122 183.636,220.031 183.454 C 220.942 183.272,221.271 182.945,221.452 182.041 C 221.608 181.258,221.992 180.788,222.599 180.636 C 223.136 180.501,223.615 179.994,223.763 179.403 C 223.902 178.852,224.269 178.400,224.579 178.400 C 225.711 178.400,226.400 177.179,226.400 175.171 L 226.400 173.200 227.800 173.200 C 229.082 173.200,229.200 173.101,229.200 172.027 C 229.200 171.044,229.379 170.833,230.300 170.727 C 231.217 170.621,231.421 170.383,231.525 169.300 C 231.614 168.380,231.854 168.000,232.345 168.000 C 233.501 168.000,234.000 167.138,234.000 165.145 C 234.000 163.300,234.034 163.247,235.300 163.125 C 236.368 163.022,236.622 162.812,236.722 161.946 C 236.816 161.140,237.122 160.836,238.022 160.656 C 239.014 160.457,239.200 160.229,239.200 159.210 C 239.200 158.311,239.385 158.000,239.920 158.000 C 241.104 158.000,241.600 157.150,241.600 155.120 C 241.600 153.483,241.718 153.193,242.400 153.150 C 242.840 153.123,243.425 153.078,243.700 153.050 C 243.975 153.023,244.256 152.426,244.324 151.724 C 244.425 150.675,244.638 150.427,245.524 150.324 C 246.536 150.207,246.607 150.064,246.720 147.900 C 246.837 145.647,246.864 145.600,248.020 145.600 C 249.098 145.600,249.200 145.481,249.200 144.225 C 249.200 142.967,249.310 142.840,250.500 142.725 C 251.565 142.623,251.822 142.411,251.921 141.554 C 251.997 140.898,252.416 140.339,253.044 140.053 C 253.595 139.802,253.934 139.417,253.799 139.198 C 253.664 138.979,253.743 138.800,253.976 138.800 C 254.209 138.800,254.400 138.092,254.400 137.227 C 254.400 135.807,254.508 135.641,255.500 135.527 C 256.417 135.421,256.621 135.183,256.725 134.100 C 256.835 132.962,256.995 132.800,258.007 132.800 C 259.012 132.800,259.198 132.617,259.426 131.400 C 259.614 130.398,259.900 130.000,260.430 130.000 C 261.415 130.000,262.000 128.818,262.000 126.826 C 262.000 125.286,262.063 125.200,263.200 125.200 C 264.259 125.200,264.400 125.063,264.400 124.032 C 264.400 123.068,264.603 122.819,265.559 122.609 C 266.824 122.331,267.186 121.556,267.195 119.100 C 267.200 117.701,267.281 117.600,268.400 117.600 C 269.467 117.600,269.600 117.467,269.600 116.400 C 269.600 115.339,269.736 115.200,270.776 115.200 C 271.846 115.200,271.963 115.065,272.076 113.700 C 272.158 112.711,272.405 112.187,272.800 112.161 C 273.130 112.139,273.612 112.094,273.871 112.061 C 274.130 112.027,274.466 111.010,274.617 109.800 C 274.879 107.705,274.947 107.600,276.046 107.600 C 277.050 107.600,277.200 107.451,277.200 106.450 C 277.200 105.492,277.401 105.260,278.400 105.060 C 279.416 104.857,279.600 104.634,279.600 103.610 C 279.600 102.579,279.751 102.400,280.621 102.400 C 281.395 102.400,281.743 102.111,282.060 101.200 C 282.290 100.540,282.641 100.000,282.839 100.000 C 283.834 100.000,284.800 98.325,284.800 96.600 C 284.800 94.867,284.844 94.800,286.000 94.800 C 287.061 94.800,287.200 94.664,287.200 93.625 C 287.200 92.592,287.357 92.436,288.500 92.325 C 289.575 92.222,289.821 92.014,289.924 91.124 C 290.020 90.293,290.293 90.020,291.124 89.924 C 292.014 89.821,292.222 89.575,292.325 88.500 C 292.436 87.357,292.592 87.200,293.625 87.200 C 294.658 87.200,294.800 87.058,294.800 86.025 C 294.800 84.992,294.957 84.836,296.100 84.725 C 297.175 84.622,297.421 84.414,297.524 83.524 C 297.620 82.693,297.893 82.420,298.724 82.324 C 299.614 82.221,299.822 81.975,299.925 80.900 C 300.036 79.757,300.192 79.600,301.225 79.600 C 302.264 79.600,302.400 79.461,302.400 78.400 C 302.400 77.263,302.486 77.200,304.026 77.200 C 306.143 77.200,307.018 76.698,307.548 75.178 C 307.795 74.467,308.162 74.053,308.407 74.204 C 309.001 74.571,310.000 73.659,310.000 72.751 C 310.000 72.182,310.293 72.000,311.210 72.000 C 312.234 72.000,312.457 71.816,312.660 70.800 C 312.860 69.801,313.092 69.600,314.050 69.600 C 315.061 69.600,315.200 69.455,315.200 68.400 C 315.200 67.224,315.241 67.200,317.229 67.200 C 319.415 67.200,320.400 66.594,320.400 65.249 C 320.400 64.545,320.698 64.424,322.700 64.320 C 324.877 64.206,325.007 64.141,325.127 63.100 C 325.243 62.084,325.389 62.000,327.027 62.000 C 328.753 62.000,330.400 61.023,330.400 60.000 C 330.400 59.780,331.075 59.598,331.900 59.595 C 334.356 59.586,335.131 59.224,335.409 57.959 C 335.655 56.839,335.744 56.800,338.032 56.800 C 340.396 56.800,340.400 56.798,340.400 55.600 L 340.400 54.400 344.567 54.400 C 348.841 54.400,350.162 54.186,349.774 53.558 C 349.652 53.361,349.743 53.200,349.976 53.200 C 350.209 53.200,350.400 52.930,350.400 52.600 C 350.400 52.100,351.194 52.000,355.150 52.000 C 361.373 52.000,362.401 51.781,362.946 50.338 L 363.375 49.200 372.200 49.200 L 381.025 49.200 381.454 50.338 C 382.003 51.793,383.128 51.992,390.800 51.990 C 397.710 51.989,398.276 51.874,398.598 50.411 C 398.849 49.265,398.469 46.998,398.089 47.378 C 397.970 47.496,397.651 47.408,397.379 47.182 C 397.107 46.957,396.730 46.800,396.542 46.833 C 394.740 47.157,393.647 46.746,393.527 45.700 C 393.421 44.783,393.183 44.579,392.100 44.475 C 391.385 44.406,390.778 44.181,390.750 43.975 C 390.723 43.769,390.678 43.413,390.650 43.185 C 390.559 42.428,389.469 42.056,386.541 41.782 C 383.764 41.521,383.633 41.463,383.392 40.365 C 383.254 39.735,383.019 39.237,382.870 39.257 C 380.437 39.595,378.400 39.133,378.400 38.243 C 378.400 37.114,377.750 36.800,375.410 36.800 C 373.749 36.800,373.151 36.347,373.035 35.000 C 373.016 34.780,372.370 34.555,371.600 34.500 C 367.754 34.226,366.000 33.904,365.994 33.471 C 365.974 31.929,365.255 31.688,360.513 31.633 C 358.382 31.609,357.673 31.469,357.808 31.100 C 358.365 29.582,357.148 29.270,350.500 29.230 C 346.325 29.204,345.600 29.107,345.600 28.571 C 345.600 26.865,345.244 26.825,328.337 26.662 C 319.462 26.576,310.320 26.579,308.023 26.668 M43.685 234.280 C 42.607 234.422,42.327 234.665,42.135 235.626 L 41.900 236.800 37.579 236.800 C 33.136 236.800,32.000 237.172,32.000 238.629 C 32.000 239.046,31.471 239.200,30.033 239.200 C 27.470 239.200,26.800 239.488,26.800 240.591 C 26.800 241.486,26.306 241.659,22.537 242.081 C 22.282 242.110,21.971 242.643,21.847 243.267 C 21.658 244.211,21.419 244.400,20.410 244.400 C 19.338 244.400,19.200 244.534,19.200 245.575 C 19.200 246.608,19.043 246.764,17.900 246.875 C 16.825 246.978,16.579 247.186,16.476 248.076 C 16.380 248.907,16.107 249.180,15.276 249.276 C 14.386 249.379,14.178 249.625,14.075 250.700 C 13.964 251.843,13.808 252.000,12.775 252.000 C 11.736 252.000,11.600 252.139,11.600 253.200 C 11.600 254.191,11.437 254.400,10.664 254.400 C 9.522 254.400,8.800 255.792,8.800 257.992 C 8.800 259.391,8.690 259.560,7.700 259.673 C 7.095 259.743,6.578 260.025,6.550 260.300 C 6.522 260.575,6.478 262.757,6.450 265.150 L 6.400 269.500 5.200 269.740 L 4.000 269.980 4.000 277.190 C 4.000 283.310,4.091 284.408,4.600 284.450 C 4.930 284.478,5.425 284.522,5.700 284.550 C 6.046 284.585,6.236 285.640,6.317 287.980 C 6.440 291.505,6.790 292.400,8.049 292.400 C 8.679 292.400,8.800 292.708,8.800 294.320 C 8.800 296.431,9.295 297.200,10.655 297.200 C 11.372 297.200,11.574 297.458,11.675 298.500 C 11.778 299.575,11.986 299.821,12.876 299.924 C 13.707 300.020,13.980 300.293,14.076 301.124 C 14.172 301.956,14.444 302.228,15.276 302.324 C 16.107 302.420,16.380 302.693,16.476 303.524 C 16.579 304.414,16.825 304.622,17.900 304.725 C 19.095 304.841,19.427 305.270,19.255 306.476 C 19.189 306.942,20.950 307.470,22.850 307.554 C 23.682 307.590,23.950 307.850,24.141 308.803 C 24.273 309.465,24.520 309.984,24.691 309.956 C 27.016 309.576,31.600 310.083,31.600 310.720 C 31.600 312.061,32.455 312.400,35.833 312.400 C 39.167 312.400,39.501 312.571,39.535 314.294 C 39.546 314.850,41.076 315.144,44.100 315.172 C 45.881 315.188,47.200 315.370,47.200 315.600 C 47.200 317.054,48.776 317.600,52.973 317.600 L 57.147 317.600 57.273 318.700 L 57.400 319.800 61.100 319.915 C 64.662 320.026,64.800 320.064,64.800 320.951 C 64.800 322.233,66.270 322.800,69.592 322.800 C 72.300 322.800,72.349 322.819,72.473 323.900 C 72.569 324.734,72.842 325.028,73.603 325.117 C 74.223 325.190,74.868 325.692,75.295 326.436 C 75.674 327.098,76.213 327.609,76.492 327.572 C 78.916 327.254,79.525 327.571,79.811 329.300 C 80.118 331.151,80.738 332.595,81.080 332.253 C 81.831 331.502,82.400 333.411,82.400 336.684 L 82.400 340.225 81.200 340.678 C 80.311 341.013,80.000 341.388,80.000 342.122 C 80.000 342.844,79.730 343.181,79.006 343.363 C 78.393 343.517,77.917 343.993,77.763 344.606 C 77.558 345.420,77.268 345.600,76.157 345.600 C 74.916 345.600,74.800 345.703,74.800 346.800 L 74.800 348.000 70.574 348.000 C 66.070 348.000,64.800 348.355,64.800 349.614 C 64.800 350.355,64.502 350.400,59.600 350.400 L 54.400 350.400 54.400 349.400 C 54.400 348.850,54.220 348.378,54.000 348.350 C 53.780 348.322,53.420 348.255,53.200 348.200 C 52.980 348.145,51.479 348.078,49.864 348.050 C 47.126 348.003,46.897 347.931,46.463 346.977 C 46.206 346.415,45.817 346.066,45.598 346.201 C 45.379 346.336,45.200 346.257,45.200 346.024 C 45.200 345.788,44.400 345.600,43.400 345.600 C 41.644 345.600,41.325 345.305,41.556 343.891 C 41.584 343.720,41.065 343.473,40.403 343.341 C 39.741 343.208,39.200 342.943,39.200 342.750 C 39.200 342.270,37.693 340.800,37.200 340.800 C 36.980 340.800,36.800 340.386,36.800 339.880 C 36.800 338.708,36.092 338.000,34.920 338.000 C 34.049 338.000,33.588 335.170,33.963 332.130 C 34.034 331.555,32.399 330.354,31.935 330.640 C 31.751 330.754,31.600 329.670,31.600 328.231 C 31.600 324.908,32.928 325.152,15.600 325.288 L 1.400 325.400 1.293 334.864 C 1.178 345.000,1.286 345.600,3.229 345.600 C 3.905 345.600,4.000 345.896,4.000 348.000 L 4.000 350.400 5.200 350.400 C 6.371 350.400,6.400 350.448,6.400 352.367 C 6.400 354.942,6.688 355.600,7.816 355.600 C 8.534 355.600,8.776 355.851,8.873 356.700 C 8.978 357.612,9.218 357.821,10.276 357.924 C 11.388 358.031,11.569 358.212,11.676 359.324 C 11.778 360.374,11.991 360.622,12.876 360.724 C 13.707 360.820,13.980 361.093,14.076 361.924 C 14.172 362.756,14.444 363.028,15.276 363.124 C 16.107 363.220,16.380 363.493,16.476 364.324 C 16.579 365.214,16.825 365.422,17.900 365.525 C 18.615 365.594,19.200 365.819,19.200 366.025 C 19.200 366.846,20.972 368.099,22.403 368.291 C 23.687 368.463,23.954 368.671,24.149 369.647 C 24.372 370.761,24.459 370.800,26.741 370.800 C 28.352 370.800,29.260 370.991,29.600 371.400 C 29.874 371.730,29.964 372.000,29.800 372.000 C 29.636 372.000,29.721 372.264,29.989 372.587 C 30.353 373.025,31.606 373.203,34.906 373.287 C 39.229 373.397,39.337 373.422,39.403 374.337 C 39.520 375.934,40.128 375.988,58.267 375.994 C 77.546 376.001,77.200 376.030,77.200 374.370 L 77.200 373.225 82.100 373.112 L 87.000 373.000 87.125 371.918 C 87.244 370.888,87.367 370.831,89.725 370.718 C 92.094 370.605,92.205 370.553,92.327 369.500 C 92.443 368.484,92.589 368.400,94.227 368.400 C 96.079 368.400,97.600 367.408,97.600 366.200 C 97.600 365.800,98.000 365.600,98.800 365.600 C 99.867 365.600,100.000 365.467,100.000 364.400 C 100.000 363.333,100.133 363.200,101.200 363.200 C 102.261 363.200,102.400 363.064,102.400 362.025 C 102.400 360.992,102.557 360.836,103.700 360.725 C 104.843 360.615,105.015 360.443,105.125 359.300 C 105.236 358.157,105.392 358.000,106.425 358.000 C 107.458 358.000,107.600 357.858,107.600 356.827 C 107.600 355.844,107.779 355.633,108.700 355.527 C 109.753 355.405,109.805 355.294,109.918 352.924 C 110.036 350.459,110.043 350.447,111.318 350.324 L 112.600 350.200 112.715 346.500 L 112.830 342.800 114.015 342.800 L 115.200 342.800 115.200 332.171 C 115.200 321.117,115.095 320.400,113.481 320.400 C 113.049 320.400,112.858 319.665,112.717 317.464 C 112.532 314.585,111.645 312.800,110.400 312.800 C 110.180 312.800,110.000 312.255,110.000 311.590 C 110.000 310.571,109.814 310.343,108.822 310.144 C 107.922 309.964,107.616 309.660,107.522 308.854 C 107.428 308.046,107.149 307.771,106.324 307.676 C 105.493 307.580,105.220 307.307,105.124 306.476 C 105.022 305.591,104.774 305.378,103.724 305.276 C 102.612 305.169,102.431 304.988,102.324 303.876 C 102.221 302.818,102.012 302.578,101.100 302.473 C 100.251 302.376,100.000 302.134,100.000 301.416 C 100.000 300.291,99.341 300.000,96.794 300.000 C 94.974 300.000,94.845 299.931,94.727 298.900 C 94.607 297.859,94.477 297.794,92.300 297.680 C 90.217 297.571,90.000 297.475,90.000 296.660 C 90.000 295.276,89.228 294.800,86.984 294.800 C 85.180 294.800,84.873 294.678,84.473 293.800 C 84.222 293.250,83.743 292.778,83.409 292.750 C 83.074 292.723,82.620 292.655,82.400 292.600 C 82.180 292.545,80.398 292.478,78.439 292.450 L 74.878 292.400 74.458 291.194 C 74.227 290.530,73.894 290.012,73.719 290.041 C 73.543 290.071,71.375 290.073,68.900 290.047 L 64.400 290.000 64.400 288.847 C 64.400 287.377,63.809 287.213,58.500 287.205 C 54.444 287.200,54.400 287.190,54.400 286.243 C 54.400 284.999,53.787 284.800,49.967 284.800 C 47.441 284.800,46.790 284.679,46.750 284.200 C 46.723 283.870,46.678 283.375,46.650 283.100 C 46.617 282.773,45.735 282.559,44.100 282.481 C 41.620 282.363,41.600 282.352,41.600 281.171 C 41.600 280.168,41.411 279.942,40.400 279.740 C 39.467 279.553,39.200 279.287,39.200 278.540 C 39.200 277.793,38.933 277.527,38.000 277.340 L 36.800 277.100 36.800 273.350 C 36.800 271.150,36.965 269.579,37.200 269.550 C 37.420 269.522,37.780 269.455,38.000 269.400 C 38.220 269.345,38.569 269.278,38.775 269.250 C 38.981 269.223,39.206 268.615,39.275 267.900 C 39.356 267.060,39.592 266.640,39.942 266.714 C 40.710 266.876,41.600 266.037,41.600 265.151 C 41.600 264.582,41.893 264.400,42.810 264.400 C 43.834 264.400,44.057 264.216,44.260 263.200 L 44.500 262.000 54.642 262.000 L 64.785 262.000 65.026 262.962 C 65.290 264.013,66.195 264.386,68.500 264.395 C 69.699 264.399,70.000 264.551,70.000 265.151 C 70.000 266.043,70.996 266.974,71.570 266.618 C 71.793 266.481,72.247 267.018,72.580 267.813 C 72.912 268.607,73.331 269.166,73.511 269.055 C 74.101 268.691,74.745 269.393,74.903 270.572 C 75.017 271.424,75.308 271.767,76.005 271.874 C 77.233 272.061,77.115 271.693,77.267 275.800 L 77.400 279.400 93.700 279.504 L 110.000 279.609 110.000 271.453 C 110.000 264.692,109.897 263.213,109.400 262.800 C 109.070 262.526,108.800 262.436,108.800 262.600 C 108.800 262.764,108.530 262.674,108.200 262.400 C 107.793 262.062,107.600 261.156,107.600 259.583 C 107.600 257.331,107.565 257.256,106.400 257.000 C 105.401 256.781,105.200 256.541,105.200 255.568 C 105.200 254.926,105.026 254.400,104.813 254.400 C 104.599 254.400,104.529 254.130,104.655 253.800 C 104.782 253.470,104.676 253.200,104.419 253.200 C 104.163 253.200,104.061 253.025,104.193 252.812 C 104.325 252.598,103.975 252.309,103.416 252.168 C 102.634 251.972,102.400 251.658,102.400 250.807 C 102.400 249.897,102.186 249.657,101.200 249.460 C 100.349 249.290,100.000 248.988,100.000 248.424 C 100.000 247.550,98.909 246.800,97.639 246.800 C 97.080 246.800,96.897 246.612,97.055 246.200 C 97.182 245.870,97.076 245.600,96.819 245.600 C 96.563 245.600,96.452 245.439,96.574 245.242 C 96.882 244.743,95.820 244.400,93.967 244.400 C 92.508 244.400,92.400 244.321,92.400 243.250 C 92.400 242.008,91.454 241.600,88.577 241.600 C 87.430 241.600,87.236 241.453,87.127 240.500 C 87.007 239.461,86.875 239.393,84.733 239.281 C 82.622 239.170,82.436 239.080,82.051 237.975 C 81.824 237.322,81.494 236.812,81.319 236.841 C 78.704 237.281,72.000 236.711,72.000 236.049 C 72.000 235.233,71.348 234.566,70.400 234.411 C 69.269 234.226,45.001 234.107,43.685 234.280 M128.456 237.332 C 128.131 237.724,128.007 256.265,128.002 305.540 L 127.995 373.209 144.298 373.104 L 160.600 373.000 160.803 335.800 C 160.915 315.340,161.050 298.822,161.103 299.092 C 161.156 299.363,161.650 299.698,162.200 299.836 C 163.140 300.072,163.200 300.245,163.205 302.743 C 163.213 306.431,163.479 307.196,164.852 307.470 C 165.927 307.685,166.543 311.132,166.041 314.119 C 166.012 314.294,166.530 314.627,167.194 314.858 C 168.372 315.268,168.400 315.341,168.405 317.939 C 168.413 321.406,168.677 322.282,169.802 322.565 C 170.727 322.797,170.893 323.492,171.211 328.473 C 171.234 328.844,171.467 329.323,171.727 329.539 C 172.195 329.928,172.425 330.000,173.200 330.000 C 173.431 330.000,173.600 331.275,173.600 333.026 C 173.600 336.360,174.032 337.600,175.195 337.600 C 175.856 337.600,175.978 337.944,176.081 340.100 C 176.195 342.496,176.246 342.605,177.300 342.727 C 178.396 342.853,178.400 342.865,178.400 345.994 C 178.400 349.903,178.584 350.400,180.028 350.400 L 181.170 350.400 181.285 354.100 L 181.400 357.800 182.500 357.927 C 183.596 358.053,183.600 358.065,183.600 361.194 C 183.600 364.953,183.804 365.600,184.986 365.600 C 185.833 365.600,185.900 365.803,186.097 368.963 C 186.212 370.812,186.428 372.522,186.577 372.763 C 186.764 373.065,191.034 373.200,200.424 373.200 L 214.000 373.200 214.000 372.027 C 214.000 371.044,214.179 370.833,215.100 370.727 L 216.200 370.600 216.315 366.925 C 216.429 363.258,216.432 363.250,217.515 363.125 C 218.598 363.000,218.600 362.994,218.715 359.300 L 218.830 355.600 219.972 355.600 C 221.416 355.600,221.600 355.103,221.600 351.194 C 221.600 348.065,221.604 348.053,222.700 347.927 L 223.800 347.800 223.915 344.100 L 224.030 340.400 225.215 340.400 L 226.400 340.400 226.400 337.800 C 226.400 335.523,226.493 335.200,227.151 335.200 C 228.426 335.200,228.928 334.080,229.117 330.809 C 229.283 327.949,229.382 327.641,230.202 327.435 C 231.303 327.159,231.587 326.198,231.595 322.727 C 231.600 320.109,231.623 320.050,232.700 319.927 L 233.800 319.800 233.915 316.100 L 234.030 312.400 235.165 312.400 C 236.499 312.400,236.800 311.475,236.800 307.377 C 236.800 304.921,236.830 304.850,237.900 304.727 L 239.000 304.600 239.115 300.900 L 239.230 297.200 240.415 297.200 L 241.600 297.200 241.697 293.300 C 241.751 291.155,241.886 308.210,241.997 331.200 L 242.200 373.000 258.400 373.000 L 274.600 373.000 274.701 305.929 C 274.765 263.361,274.661 238.486,274.415 237.839 L 274.027 236.819 251.714 236.910 C 234.209 236.981,229.389 237.108,229.350 237.500 C 229.323 237.775,229.278 238.796,229.250 239.768 C 229.204 241.392,229.102 241.558,228.000 241.800 C 226.814 242.061,226.800 242.094,226.795 244.732 C 226.787 248.294,226.559 248.965,225.174 249.487 C 224.003 249.929,224.000 249.938,224.000 253.317 C 224.000 256.702,224.000 256.703,222.800 257.200 C 221.603 257.696,221.600 257.706,221.600 261.009 L 221.600 264.322 220.400 264.740 L 219.200 265.158 219.200 268.547 L 219.200 271.936 218.000 272.200 C 216.613 272.505,216.448 272.971,216.302 277.000 C 216.210 279.517,216.114 279.812,215.346 279.922 C 214.346 280.064,214.000 281.325,214.000 284.823 C 214.000 286.882,213.898 287.178,213.100 287.427 C 211.772 287.841,211.613 288.294,211.606 291.678 C 211.600 294.627,211.554 294.778,210.517 295.278 C 209.237 295.895,208.894 296.924,208.840 300.300 C 208.811 302.137,208.654 302.800,208.249 302.800 C 206.832 302.800,206.473 304.039,206.431 309.073 L 206.400 312.747 205.300 312.873 L 204.200 313.000 204.085 316.700 L 203.970 320.400 202.818 320.400 C 202.185 320.400,201.576 320.625,201.465 320.900 C 201.289 321.337,201.018 318.323,201.158 317.484 C 201.241 316.985,200.359 315.508,200.120 315.747 C 199.595 316.272,198.860 314.758,198.767 312.963 C 198.653 310.750,198.244 310.000,197.151 310.000 C 196.477 310.000,196.400 309.661,196.400 306.680 C 196.400 303.137,196.076 302.400,194.520 302.400 C 193.681 302.400,193.103 298.262,193.556 295.491 C 193.584 295.320,193.065 295.073,192.403 294.941 C 191.231 294.706,190.731 292.250,191.172 288.892 C 191.209 288.613,190.691 288.073,190.022 287.692 C 188.837 287.018,188.805 286.920,188.796 284.000 C 188.787 280.586,188.619 280.171,187.096 279.788 C 186.041 279.523,185.998 279.411,185.950 276.757 C 185.923 275.240,185.855 273.820,185.800 273.600 C 185.745 273.380,185.678 273.020,185.650 272.800 C 185.623 272.580,185.234 272.400,184.787 272.400 C 183.793 272.400,183.695 272.125,183.427 268.600 C 183.159 265.089,183.120 264.839,182.833 264.870 C 181.337 265.031,181.200 264.799,181.195 262.100 C 181.187 258.367,180.924 257.605,179.548 257.330 C 178.410 257.102,178.400 257.076,178.400 254.174 C 178.400 252.564,178.217 251.134,177.993 250.996 C 177.770 250.858,177.687 250.582,177.810 250.384 C 177.932 250.186,177.575 249.909,177.016 249.768 C 176.098 249.538,175.997 249.314,175.969 247.457 C 175.953 246.325,175.869 245.130,175.784 244.800 C 175.699 244.470,175.573 243.930,175.503 243.600 C 175.278 242.527,174.731 241.941,174.160 242.160 C 173.728 242.326,173.600 241.935,173.600 240.454 C 173.600 239.398,173.465 238.398,173.300 238.233 C 173.135 238.068,173.000 237.723,173.000 237.467 C 173.000 236.730,129.067 236.597,128.456 237.332 M295.600 237.193 C 294.954 237.600,294.646 370.939,295.287 372.500 C 295.559 373.162,298.409 373.200,347.187 373.200 L 398.800 373.200 398.800 359.400 L 398.800 345.600 363.400 345.600 L 328.000 345.600 328.000 331.607 L 328.000 317.614 360.180 317.507 C 385.922 317.421,392.464 317.296,392.880 316.881 C 393.750 316.011,393.851 291.508,392.987 290.645 C 392.405 290.063,389.223 290.000,360.171 290.000 L 328.000 290.000 328.000 278.606 L 328.000 267.213 362.780 267.106 C 390.682 267.021,397.663 266.897,398.080 266.480 C 398.909 265.650,398.833 237.717,398.000 237.193 C 397.189 236.683,296.411 236.683,295.600 237.193 M0.000 508.800 L 0.000 570.809 35.500 570.667 C 74.787 570.509,72.000 570.610,72.000 569.348 C 72.000 568.465,72.141 568.426,75.700 568.315 L 79.400 568.200 79.525 566.900 L 79.651 565.600 82.225 565.600 L 84.800 565.600 84.800 564.400 C 84.800 563.218,84.831 563.200,86.920 563.200 C 89.123 563.200,90.000 562.729,90.000 561.547 C 90.000 561.087,90.372 560.810,91.100 560.727 C 92.017 560.621,92.221 560.383,92.325 559.300 C 92.436 558.157,92.592 558.000,93.625 558.000 C 94.664 558.000,94.800 557.861,94.800 556.800 C 94.800 555.814,94.964 555.600,95.720 555.600 C 96.946 555.600,97.600 554.881,97.600 553.533 C 97.600 552.712,97.756 552.485,98.200 552.655 C 98.530 552.782,98.800 552.676,98.800 552.419 C 98.800 552.163,98.961 552.052,99.158 552.174 C 99.732 552.529,100.000 551.331,100.000 548.406 C 100.000 545.735,100.025 545.670,101.200 545.260 L 102.400 544.842 102.400 533.821 C 102.400 527.759,102.265 522.821,102.100 522.847 C 100.151 523.155,100.035 522.956,99.915 519.100 L 99.800 515.400 98.700 515.273 C 97.784 515.168,97.600 514.954,97.600 513.997 C 97.600 513.365,97.417 512.734,97.193 512.596 C 96.970 512.458,96.895 512.169,97.028 511.955 C 97.371 511.400,96.437 510.400,95.576 510.400 C 95.050 510.400,94.816 510.043,94.725 509.100 C 94.626 508.075,94.396 507.771,93.635 507.664 C 92.624 507.521,91.256 506.422,91.600 506.029 C 91.855 505.737,89.287 504.852,88.100 504.823 C 87.469 504.807,87.200 504.557,87.200 503.987 C 87.200 503.518,86.819 503.021,86.300 502.812 L 85.400 502.451 86.300 502.425 C 87.028 502.405,87.200 502.170,87.200 501.200 C 87.200 500.214,87.364 500.000,88.120 500.000 C 89.284 500.000,90.000 499.294,90.000 498.147 C 90.000 497.469,90.266 497.223,91.100 497.127 C 92.140 497.007,92.207 496.875,92.319 494.725 C 92.431 492.585,92.503 492.442,93.519 492.325 C 94.597 492.200,94.600 492.190,94.715 488.500 C 94.825 484.957,94.869 484.800,95.735 484.800 C 97.451 484.800,97.600 484.208,97.600 477.382 C 97.600 470.537,97.343 469.600,95.469 469.600 C 94.893 469.600,94.800 469.097,94.800 465.990 L 94.800 462.380 93.600 462.140 C 92.520 461.924,92.400 461.749,92.400 460.383 C 92.400 458.576,92.052 457.520,91.558 457.826 C 91.361 457.948,91.200 457.857,91.200 457.624 C 91.200 457.391,90.921 457.200,90.579 457.200 C 90.238 457.200,89.770 456.660,89.540 456.000 C 89.310 455.340,88.869 454.777,88.561 454.750 C 88.252 454.723,87.820 454.655,87.600 454.600 C 87.380 454.545,86.660 454.477,86.000 454.450 C 84.944 454.406,84.800 454.256,84.800 453.200 C 84.800 452.095,84.689 452.000,83.400 452.000 C 82.180 452.000,82.000 451.874,82.000 451.019 C 82.000 449.819,80.210 449.206,76.700 449.202 C 74.655 449.200,74.400 449.110,74.400 448.387 C 74.400 446.915,73.066 446.860,36.300 446.826 L 0.000 446.792 0.000 508.800 M312.899 508.695 L 313.000 570.600 326.109 570.684 C 333.318 570.730,339.483 570.666,339.809 570.541 C 340.316 570.347,340.400 568.187,340.400 555.357 C 340.400 542.661,340.486 540.400,340.971 540.400 C 341.721 540.400,342.877 539.230,342.687 538.662 C 342.489 538.068,343.281 537.256,343.846 537.473 C 344.455 537.707,345.600 536.511,345.600 535.641 C 345.600 535.088,345.856 534.976,346.800 535.115 C 347.809 535.263,348.000 535.471,348.000 536.422 C 348.000 537.044,348.172 537.659,348.383 537.789 C 348.593 537.919,348.675 538.261,348.564 538.549 C 348.454 538.836,348.642 539.303,348.982 539.585 C 349.322 539.867,349.600 539.973,349.600 539.820 C 349.600 539.668,349.870 539.813,350.200 540.143 C 350.530 540.473,350.800 541.206,350.800 541.771 C 350.800 542.648,350.978 542.800,352.000 542.800 C 353.171 542.800,353.200 542.848,353.200 544.771 C 353.200 546.820,354.028 548.228,355.011 547.851 C 355.482 547.671,355.967 549.297,356.032 551.273 C 356.059 552.100,356.926 552.868,357.658 552.714 C 357.993 552.643,358.250 553.037,358.331 553.746 C 358.427 554.587,358.774 555.011,359.631 555.334 C 360.648 555.718,360.804 555.984,360.828 557.388 C 360.858 559.108,361.252 560.471,361.711 560.441 C 362.526 560.386,363.136 560.978,363.346 562.029 C 363.475 562.676,363.720 563.184,363.891 563.156 C 365.742 562.854,366.000 563.153,366.000 565.610 C 366.000 567.958,366.030 568.026,367.178 568.256 C 368.078 568.436,368.384 568.740,368.478 569.546 L 368.600 570.600 384.300 570.712 L 400.000 570.825 400.000 567.012 C 400.000 563.969,399.884 563.200,399.427 563.200 C 399.098 563.200,398.799 562.730,398.727 562.100 C 398.627 561.236,398.364 560.973,397.500 560.873 C 396.487 560.757,396.400 560.609,396.400 558.997 C 396.400 558.035,396.217 557.134,395.993 556.996 C 395.770 556.858,395.681 556.592,395.797 556.405 C 395.912 556.218,395.465 555.946,394.803 555.801 C 393.801 555.580,393.600 555.342,393.600 554.368 C 393.600 553.337,393.459 553.200,392.400 553.200 C 391.320 553.200,391.197 553.070,391.167 551.900 C 391.088 548.846,390.700 548.024,389.327 548.006 C 389.066 548.003,388.796 547.505,388.727 546.900 C 388.621 545.983,388.383 545.779,387.300 545.675 C 386.046 545.554,385.556 543.915,385.943 541.130 C 385.963 540.981,385.456 540.744,384.814 540.603 C 383.927 540.408,383.618 540.090,383.524 539.273 C 383.427 538.438,383.156 538.172,382.300 538.073 C 381.268 537.955,381.200 537.826,381.200 536.002 C 381.200 533.906,380.499 532.800,379.171 532.800 C 378.581 532.800,378.400 532.519,378.400 531.600 C 378.400 530.533,378.267 530.400,377.200 530.400 C 376.038 530.400,375.583 529.161,375.969 527.050 C 376.063 526.536,374.760 525.200,374.165 525.200 C 373.883 525.200,373.596 524.705,373.527 524.100 C 373.421 523.183,373.183 522.979,372.100 522.875 C 370.829 522.752,370.800 522.706,370.800 520.803 C 370.800 518.833,370.106 517.600,368.998 517.600 C 368.698 517.600,368.396 517.105,368.327 516.500 C 368.227 515.636,367.964 515.373,367.100 515.273 C 366.495 515.204,366.000 514.984,366.000 514.786 C 366.000 514.588,366.270 514.529,366.600 514.655 C 366.930 514.782,367.200 514.676,367.200 514.419 C 367.200 514.163,367.380 514.064,367.600 514.200 C 367.825 514.339,368.000 514.021,368.000 513.474 C 368.000 512.721,368.261 512.448,369.152 512.270 C 369.956 512.109,370.381 511.731,370.559 511.020 C 370.700 510.459,371.069 510.000,371.379 510.000 C 372.137 510.000,373.289 508.808,373.073 508.246 C 372.876 507.733,373.556 507.019,374.300 506.960 C 375.468 506.867,375.600 506.754,375.600 505.850 C 375.600 505.123,375.871 504.846,376.752 504.670 C 377.556 504.509,377.981 504.131,378.159 503.420 C 378.300 502.859,378.669 502.400,378.979 502.400 C 379.798 502.400,380.881 501.189,380.636 500.548 C 380.497 500.186,380.727 499.998,381.313 499.994 C 382.594 499.985,383.318 499.409,383.397 498.337 C 383.448 497.637,383.761 497.349,384.633 497.198 C 385.546 497.040,385.828 496.758,385.927 495.898 C 386.027 495.025,386.259 494.800,387.061 494.800 C 387.814 494.800,388.184 494.496,388.522 493.600 C 388.772 492.940,389.161 492.397,389.388 492.394 C 390.219 492.382,390.930 491.650,390.997 490.737 C 391.048 490.037,391.361 489.749,392.233 489.598 C 393.139 489.441,393.428 489.156,393.524 488.322 C 393.620 487.493,393.893 487.220,394.724 487.124 C 395.543 487.030,395.890 486.694,396.178 485.718 C 396.422 484.888,396.846 484.394,397.378 484.318 C 398.053 484.221,398.222 483.864,398.321 482.322 C 398.500 479.548,398.340 479.525,380.161 479.674 C 364.380 479.804,363.183 479.935,363.769 481.464 C 363.898 481.799,363.444 482.222,362.559 482.592 C 361.780 482.917,361.234 483.331,361.345 483.511 C 361.644 483.996,361.137 484.556,359.911 485.095 C 359.297 485.364,358.711 486.015,358.568 486.586 C 358.415 487.193,358.029 487.600,357.606 487.600 C 356.749 487.600,355.834 488.608,356.182 489.170 C 356.319 489.393,355.825 489.830,355.083 490.140 C 354.341 490.450,353.703 490.950,353.666 491.252 C 353.285 494.357,353.109 494.756,352.059 494.877 C 351.261 494.970,350.971 495.252,350.881 496.023 C 350.792 496.783,350.433 497.142,349.481 497.423 C 348.507 497.710,348.170 498.057,348.076 498.876 C 347.980 499.707,347.707 499.980,346.876 500.076 C 346.044 500.172,345.772 500.444,345.676 501.276 C 345.580 502.107,345.307 502.380,344.476 502.476 C 343.638 502.573,343.372 502.843,343.273 503.700 C 343.175 504.556,342.936 504.800,342.197 504.800 C 341.675 504.800,341.102 505.025,340.924 505.300 C 340.746 505.575,340.510 492.570,340.400 476.400 L 340.200 447.000 326.499 446.895 L 312.797 446.789 312.899 508.695 M59.852 472.900 C 60.021 473.395,60.123 473.935,60.079 474.100 C 60.036 474.265,60.967 474.400,62.150 474.400 C 64.429 474.400,64.800 474.859,64.800 477.679 C 64.800 478.617,65.706 479.600,66.571 479.600 C 67.098 479.600,67.200 480.208,67.200 483.350 L 67.200 487.100 66.000 487.340 C 64.996 487.541,64.800 487.770,64.800 488.747 C 64.800 489.656,64.580 489.968,63.806 490.163 C 63.193 490.317,62.717 490.793,62.563 491.406 C 62.368 492.180,62.056 492.400,61.147 492.400 C 60.170 492.400,59.941 492.596,59.740 493.600 L 59.500 494.800 44.350 494.800 L 29.200 494.800 29.200 483.400 L 29.200 472.000 44.373 472.000 L 59.546 472.000 59.852 472.900 M140.943 478.387 L 140.700 479.600 136.350 479.600 C 132.007 479.600,130.400 480.128,130.400 481.555 C 130.400 481.750,129.567 482.034,128.549 482.187 C 125.937 482.578,125.600 482.765,125.600 483.817 C 125.600 484.576,125.359 484.773,124.300 484.875 C 123.225 484.978,122.979 485.186,122.876 486.076 C 122.780 486.907,122.507 487.180,121.676 487.276 C 120.851 487.371,120.572 487.646,120.478 488.454 C 120.384 489.262,120.078 489.564,119.169 489.746 C 118.248 489.930,117.929 490.253,117.742 491.192 C 117.609 491.856,117.265 492.400,116.979 492.400 C 115.887 492.400,115.200 493.648,115.200 495.629 C 115.200 496.713,115.020 497.600,114.800 497.600 C 113.230 497.600,112.800 499.104,112.800 504.600 L 112.800 510.000 126.576 510.000 L 140.352 510.000 140.476 508.500 C 140.559 507.492,140.778 507.037,141.142 507.114 C 141.899 507.273,142.877 506.379,142.636 505.749 C 142.525 505.461,142.607 505.119,142.817 504.989 C 143.028 504.859,143.200 504.235,143.200 503.603 C 143.200 502.646,143.384 502.432,144.300 502.327 C 145.164 502.227,145.427 501.964,145.527 501.100 C 145.632 500.184,145.846 500.000,146.803 500.000 C 147.435 500.000,148.059 499.828,148.189 499.617 C 148.319 499.407,148.661 499.325,148.949 499.436 C 149.579 499.677,150.473 498.699,150.314 497.942 C 150.224 497.512,151.293 497.377,155.500 497.288 L 160.800 497.177 160.800 498.346 C 160.800 499.577,161.368 500.000,163.020 500.000 C 163.654 500.000,163.906 500.180,163.769 500.536 C 163.656 500.831,163.842 501.303,164.182 501.585 C 164.522 501.867,164.800 501.973,164.800 501.820 C 164.800 501.668,165.070 501.813,165.400 502.143 C 165.730 502.473,166.000 503.206,166.000 503.771 C 166.000 504.648,166.178 504.800,167.200 504.800 C 168.956 504.800,169.049 507.472,167.300 507.673 C 166.436 507.773,166.173 508.036,166.074 508.899 C 165.984 509.676,165.661 510.070,164.970 510.243 C 164.408 510.384,163.897 510.873,163.766 511.392 C 163.550 512.254,161.172 512.808,157.527 512.847 C 156.705 512.855,155.931 513.721,156.086 514.458 C 156.178 514.896,154.563 515.038,147.685 515.200 C 138.907 515.406,138.426 515.505,138.406 517.100 C 138.402 517.468,137.295 517.600,134.226 517.600 C 129.515 517.600,128.000 517.987,128.000 519.190 C 128.000 519.858,127.738 520.001,126.500 520.005 C 124.005 520.015,123.181 520.394,122.930 521.652 C 122.727 522.665,122.528 522.800,121.239 522.800 C 119.698 522.800,118.000 523.710,118.000 524.535 C 118.000 524.804,117.468 525.225,116.818 525.471 C 116.071 525.753,115.540 526.300,115.375 526.958 C 115.231 527.531,114.873 528.000,114.579 528.000 C 113.703 528.000,112.800 529.673,112.800 531.299 C 112.800 532.660,112.677 532.845,111.632 533.054 C 110.484 533.283,110.460 533.343,110.190 536.588 C 109.632 543.277,110.308 557.951,111.150 557.431 C 111.700 557.091,112.738 558.293,112.866 559.419 C 112.974 560.369,113.215 560.625,114.100 560.727 C 114.942 560.823,115.200 561.067,115.200 561.767 C 115.200 563.109,116.021 565.234,116.439 564.976 C 116.638 564.853,116.800 564.922,116.800 565.130 C 116.800 565.337,117.161 565.601,117.602 565.716 C 118.093 565.845,118.318 566.147,118.183 566.499 C 117.928 567.164,118.980 568.183,119.555 567.828 C 119.769 567.695,120.058 567.770,120.196 567.993 C 120.334 568.217,120.977 568.400,121.624 568.400 C 122.342 568.400,122.800 568.609,122.800 568.938 C 122.800 569.554,124.125 570.865,124.650 570.769 C 126.450 570.440,130.400 570.873,130.400 571.400 C 130.400 571.919,131.933 572.000,141.800 572.000 C 151.667 572.000,153.200 571.919,153.200 571.400 C 153.200 570.918,153.867 570.790,156.600 570.750 C 158.470 570.723,160.180 570.655,160.400 570.600 C 160.620 570.545,161.164 570.477,161.609 570.450 C 162.053 570.423,162.622 569.950,162.873 569.400 C 163.226 568.624,163.628 568.400,164.664 568.400 C 165.399 568.400,166.000 568.209,166.000 567.976 C 166.000 567.743,166.164 567.654,166.364 567.778 C 167.082 568.222,168.001 567.494,168.030 566.457 C 168.060 565.435,168.077 565.443,168.530 566.694 C 168.789 567.406,169.090 567.957,169.200 567.918 C 169.757 567.724,170.739 568.719,170.862 569.600 L 171.000 570.600 184.800 570.600 L 198.600 570.600 198.675 567.503 C 198.752 564.329,198.305 563.200,196.971 563.200 C 196.481 563.200,196.400 558.482,196.400 529.816 L 196.400 496.431 195.525 495.616 C 195.043 495.167,194.413 494.800,194.125 494.800 C 193.771 494.800,193.600 494.224,193.600 493.033 C 193.600 490.650,193.291 490.000,192.157 490.000 C 191.359 490.000,191.200 489.800,191.200 488.790 C 191.200 487.766,191.016 487.543,190.000 487.340 C 189.090 487.158,188.800 486.881,188.800 486.193 C 188.800 485.274,188.125 484.800,186.817 484.800 C 186.345 484.800,186.020 484.401,185.866 483.631 C 185.651 482.553,185.460 482.440,183.416 482.185 C 181.993 482.007,181.200 481.720,181.200 481.382 C 181.200 480.036,180.082 479.690,175.532 479.627 C 170.449 479.558,170.866 479.665,170.669 478.376 L 170.521 477.400 155.853 477.287 L 141.185 477.174 140.943 478.387 M252.267 477.467 C 252.120 477.613,252.000 478.153,252.000 478.667 C 252.000 479.566,251.884 479.600,248.829 479.600 C 245.608 479.600,244.400 480.090,244.400 481.397 C 244.400 481.694,243.860 482.055,243.200 482.200 C 242.201 482.419,242.000 482.659,242.000 483.632 C 242.000 484.742,241.914 484.800,240.276 484.800 C 238.518 484.800,237.460 485.329,237.078 486.400 C 236.960 486.730,236.849 485.444,236.832 483.543 C 236.806 480.779,236.673 480.037,236.167 479.843 C 235.115 479.439,210.254 479.578,209.600 479.992 C 209.072 480.325,209.004 485.705,209.034 524.685 C 209.070 570.742,209.061 570.190,209.767 570.389 C 211.026 570.745,237.218 570.774,238.147 570.420 L 239.200 570.020 239.200 540.010 L 239.200 510.000 240.376 510.000 C 241.446 510.000,241.563 509.865,241.676 508.500 C 241.758 507.511,242.005 506.987,242.400 506.961 C 243.831 506.868,244.000 506.750,244.000 505.850 C 244.000 505.123,244.271 504.846,245.152 504.670 C 245.956 504.509,246.381 504.131,246.559 503.420 C 246.781 502.537,247.033 502.400,248.434 502.400 C 250.446 502.400,251.600 501.812,251.600 500.786 C 251.600 500.080,251.883 500.000,254.400 500.000 C 256.679 500.000,257.200 500.117,257.200 500.629 C 257.200 501.748,258.284 502.400,260.145 502.400 C 261.813 502.400,261.956 502.482,262.073 503.500 C 262.171 504.352,262.439 504.628,263.259 504.723 C 264.376 504.852,264.784 505.651,264.795 507.729 C 264.801 508.976,265.602 510.000,266.571 510.000 C 267.137 510.000,267.200 512.989,267.200 539.951 C 267.200 564.239,267.300 569.985,267.727 570.339 C 268.085 570.636,272.513 570.777,281.527 570.777 L 294.800 570.778 294.800 533.469 C 294.800 494.535,294.829 495.200,293.139 495.200 C 292.559 495.200,292.418 494.770,292.319 492.700 C 292.206 490.334,292.143 490.193,291.150 490.078 C 290.223 489.971,290.075 489.741,289.893 488.129 C 289.780 487.124,289.443 486.146,289.144 485.957 C 288.845 485.767,288.780 485.607,289.000 485.600 C 290.269 485.561,287.907 484.811,286.500 484.806 C 284.940 484.801,284.800 484.715,284.800 483.765 C 284.800 482.980,284.507 482.620,283.584 482.272 C 282.877 482.005,282.273 481.434,282.141 480.909 C 282.017 480.412,281.766 480.097,281.585 480.209 C 281.404 480.321,281.142 480.230,281.004 480.007 C 280.866 479.783,279.417 479.600,277.784 479.600 C 274.982 479.600,274.802 479.546,274.574 478.638 C 274.441 478.109,273.942 477.571,273.466 477.443 C 272.256 477.119,252.593 477.140,252.267 477.467 M62.340 518.800 C 62.737 519.939,62.871 520.000,64.979 520.000 C 66.902 520.000,67.200 520.103,67.200 520.767 C 67.200 522.142,67.667 522.800,68.643 522.800 C 69.576 522.800,69.928 524.066,69.624 526.326 C 69.585 526.615,70.104 527.060,70.777 527.314 L 72.000 527.775 72.000 531.644 C 72.000 535.386,71.969 535.521,71.048 535.752 C 70.038 536.006,69.614 536.980,69.605 539.073 C 69.601 540.164,69.442 540.365,68.500 540.473 C 67.636 540.573,67.373 540.836,67.273 541.700 C 67.169 542.606,66.951 542.800,66.033 542.800 C 64.111 542.800,62.493 543.577,62.229 544.626 L 61.985 545.600 45.592 545.600 L 29.200 545.600 29.200 531.600 L 29.200 517.600 45.561 517.600 L 61.922 517.600 62.340 518.800 M168.400 534.173 L 168.400 537.947 167.300 538.073 L 166.200 538.200 166.085 541.900 L 165.970 545.600 164.775 545.600 C 163.775 545.600,163.542 545.790,163.346 546.768 C 163.188 547.559,162.807 548.012,162.163 548.174 C 161.611 548.312,161.113 548.807,160.976 549.354 C 160.779 550.139,160.409 550.335,158.760 550.530 C 156.299 550.822,156.000 551.005,156.000 552.224 L 156.000 553.200 150.800 553.200 C 145.867 553.200,145.600 553.159,145.600 552.400 C 145.600 551.960,145.409 551.600,145.176 551.600 C 144.943 551.600,144.845 551.450,144.959 551.267 C 145.072 551.083,144.948 550.910,144.682 550.881 C 140.910 550.475,140.444 550.301,140.322 549.250 C 140.228 548.439,139.949 548.171,139.100 548.073 L 138.000 547.947 138.000 544.200 L 138.000 540.453 139.100 540.327 C 139.951 540.229,140.228 539.961,140.322 539.146 C 140.416 538.338,140.722 538.036,141.631 537.854 C 142.552 537.670,142.871 537.347,143.058 536.408 C 143.299 535.204,143.310 535.200,146.050 535.200 C 148.702 535.200,150.644 534.332,150.300 533.300 C 150.245 533.135,153.080 532.910,156.600 532.800 C 161.308 532.653,163.013 532.468,163.050 532.100 C 163.078 531.825,163.123 531.330,163.150 531.000 C 163.189 530.533,163.778 530.400,165.800 530.400 L 168.400 530.400 168.400 534.173 " stroke="none" fill="#1c74bc" fill-rule="evenodd"></path><path id="path3" d="M60.711 396.293 C 61.651 396.378,63.091 396.377,63.911 396.291 C 64.730 396.205,63.960 396.136,62.200 396.137 C 60.440 396.139,59.770 396.209,60.711 396.293 M131.111 396.293 C 132.051 396.378,133.491 396.377,134.311 396.291 C 135.130 396.205,134.360 396.136,132.600 396.137 C 130.840 396.139,130.170 396.209,131.111 396.293 M184.711 396.293 C 185.651 396.378,187.091 396.377,187.911 396.291 C 188.730 396.205,187.960 396.136,186.200 396.137 C 184.440 396.139,183.770 396.209,184.711 396.293 M226.900 396.287 C 227.505 396.378,228.495 396.378,229.100 396.287 C 229.705 396.195,229.210 396.120,228.000 396.120 C 226.790 396.120,226.295 396.195,226.900 396.287 M266.707 396.290 C 267.426 396.379,268.506 396.377,269.107 396.286 C 269.708 396.195,269.120 396.122,267.800 396.124 C 266.480 396.126,265.988 396.201,266.707 396.290 M285.507 396.290 C 286.226 396.379,287.306 396.377,287.907 396.286 C 288.508 396.195,287.920 396.122,286.600 396.124 C 285.280 396.126,284.788 396.201,285.507 396.290 M319.900 396.289 C 320.615 396.378,321.785 396.378,322.500 396.289 C 323.215 396.201,322.630 396.128,321.200 396.128 C 319.770 396.128,319.185 396.201,319.900 396.289 M360.900 396.287 C 361.505 396.378,362.495 396.378,363.100 396.287 C 363.705 396.195,363.210 396.120,362.000 396.120 C 360.790 396.120,360.295 396.195,360.900 396.287 M78.700 404.737 C 79.085 405.142,79.546 405.394,79.724 405.298 C 79.902 405.202,79.722 404.876,79.324 404.574 C 78.273 403.777,77.884 403.878,78.700 404.737 " stroke="none" fill="#50a844" fill-rule="evenodd"></path><path id="path4" d="" stroke="none" fill="#509094" fill-rule="evenodd"></path></g></svg>